M48
; DRILL file {KiCad 9.0.3} date 2025-08-02T21:47:13-0400
; FORMAT={-:-/ absolute / metric / decimal}
; #@! TF.CreationDate,2025-08-02T21:47:13-04:00
; #@! TF.GenerationSoftware,Kicad,Pcbnew,9.0.3
; #@! TF.FileFunction,Plated,1,2,PTH
FMAT,2
METRIC
; #@! TA.AperFunction,Plated,PTH,ViaDrill
T1C0.300
; #@! TA.AperFunction,Plated,PTH,ComponentDrill
T2C0.889
; #@! TA.AperFunction,Plated,PTH,ComponentDrill
T3C1.000
%
G90
G05
T1
X154.524Y-84.484
X172.115Y-90.465
X172.962Y-83.272
X176.677Y-82.222
T2
X138.571Y-75.594
X138.571Y-78.135
X138.571Y-80.674
X138.571Y-83.215
X138.571Y-85.754
X138.571Y-88.294
X138.571Y-90.834
X153.811Y-75.594
X153.811Y-78.135
X153.811Y-80.674
X153.811Y-83.215
X153.811Y-85.754
X153.811Y-88.294
X153.811Y-90.834
T3
X130.95Y-80.08
X130.95Y-82.62
X130.95Y-85.16
X130.95Y-87.7
M30
