%TF.GenerationSoftware,KiCad,Pcbnew,9.0.3*%
%TF.CreationDate,2025-08-21T16:00:50-04:00*%
%TF.ProjectId,hermes,6865726d-6573-42e6-9b69-6361645f7063,rev?*%
%TF.SameCoordinates,Original*%
%TF.FileFunction,Copper,L2,Bot*%
%TF.FilePolarity,Positive*%
%FSLAX46Y46*%
G04 Gerber Fmt 4.6, Leading zero omitted, Abs format (unit mm)*
G04 Created by KiCad (PCBNEW 9.0.3) date 2025-08-21 16:00:50*
%MOMM*%
%LPD*%
G01*
G04 APERTURE LIST*
%TA.AperFunction,ComponentPad*%
%ADD10C,1.524000*%
%TD*%
%TA.AperFunction,ComponentPad*%
%ADD11O,1.600000X2.000000*%
%TD*%
%TA.AperFunction,ViaPad*%
%ADD12C,0.600000*%
%TD*%
%TA.AperFunction,Conductor*%
%ADD13C,0.200000*%
%TD*%
G04 APERTURE END LIST*
D10*
%TO.P,U1,1,GPIO26/ADC0/A0*%
%TO.N,unconnected-(U1-GPIO26{slash}ADC0{slash}A0-Pad1)_1*%
X154165000Y-129120000D03*
%TO.P,U1,2,GPIO27/ADC1/A1*%
%TO.N,unconnected-(U1-GPIO27{slash}ADC1{slash}A1-Pad2)*%
X154165000Y-126580000D03*
%TO.P,U1,3,GPIO28/ADC2/A2*%
%TO.N,unconnected-(U1-GPIO28{slash}ADC2{slash}A2-Pad3)*%
X154165000Y-124040000D03*
%TO.P,U1,4,GPIO29/ADC3/A3*%
%TO.N,unconnected-(U1-GPIO29{slash}ADC3{slash}A3-Pad4)_1*%
X154165000Y-121500000D03*
%TO.P,U1,5,GPIO6/SDA*%
%TO.N,SDA*%
X154165000Y-118960000D03*
%TO.P,U1,6,GPIO7/SCL*%
%TO.N,SCL*%
X154165000Y-116420000D03*
%TO.P,U1,7,GPIO0/TX*%
%TO.N,unconnected-(U1-GPIO0{slash}TX-Pad7)*%
X154165000Y-113880000D03*
%TO.P,U1,8,GPIO1/RX*%
%TO.N,unconnected-(U1-GPIO1{slash}RX-Pad8)_1*%
X138925000Y-113880000D03*
%TO.P,U1,9,GPIO2/SCK*%
%TO.N,unconnected-(U1-GPIO2{slash}SCK-Pad9)_1*%
X138925000Y-116420000D03*
%TO.P,U1,10,GPIO4/MISO*%
%TO.N,unconnected-(U1-GPIO4{slash}MISO-Pad10)*%
X138925000Y-118960000D03*
%TO.P,U1,11,GPIO3/MOSI*%
%TO.N,unconnected-(U1-GPIO3{slash}MOSI-Pad11)_1*%
X138925000Y-121500000D03*
%TO.P,U1,12,3V3*%
%TO.N,+3V3*%
X138925000Y-124040000D03*
%TO.P,U1,13,GND*%
%TO.N,GND*%
X138925000Y-126580000D03*
%TO.P,U1,14,VBUS*%
%TO.N,unconnected-(U1-VBUS-Pad14)_1*%
X138925000Y-129120000D03*
%TD*%
D11*
%TO.P,J1,1,GND*%
%TO.N,GND*%
X150465000Y-92350000D03*
%TO.P,J1,2,VCC*%
%TO.N,+3V3*%
X147925000Y-92350000D03*
%TO.P,J1,3,SCL*%
%TO.N,SCL*%
X145385000Y-92350000D03*
%TO.P,J1,4,SDA*%
%TO.N,SDA*%
X142845000Y-92350000D03*
%TD*%
D12*
%TO.N,GND*%
X138345000Y-102417100D03*
X146107000Y-100978800D03*
X151695000Y-105000000D03*
X140130000Y-103985200D03*
%TO.N,SCL*%
X142895000Y-99191200D03*
X141895000Y-101941200D03*
%TD*%
D13*
%TO.N,SDA*%
X154165000Y-118960000D02*
X155228000Y-117897000D01*
X155228000Y-104733000D02*
X142845000Y-92350000D01*
X155228000Y-117897000D02*
X155228000Y-104733000D01*
%TO.N,SCL*%
X141895000Y-101941200D02*
X141895000Y-100191200D01*
X141895000Y-101941200D02*
X142154000Y-101941200D01*
X141895000Y-104150000D02*
X141895000Y-101941200D01*
X154165000Y-116420000D02*
X141895000Y-104150000D01*
X141895000Y-100191200D02*
X142895000Y-99191200D01*
%TD*%
%TA.AperFunction,Conductor*%
%TO.N,GND*%
G36*
X160162539Y-66520185D02*
G01*
X160208294Y-66572989D01*
X160219500Y-66624500D01*
X160219500Y-133375500D01*
X160199815Y-133442539D01*
X160147011Y-133488294D01*
X160095500Y-133499500D01*
X132844500Y-133499500D01*
X132777461Y-133479815D01*
X132731706Y-133427011D01*
X132720500Y-133375500D01*
X132720500Y-113780639D01*
X137662500Y-113780639D01*
X137662500Y-113979360D01*
X137693587Y-114175637D01*
X137754993Y-114364629D01*
X137754994Y-114364632D01*
X137792526Y-114438291D01*
X137845213Y-114541694D01*
X137962019Y-114702464D01*
X138102536Y-114842981D01*
X138263306Y-114959787D01*
X138366708Y-115012473D01*
X138419780Y-115039515D01*
X138470576Y-115087490D01*
X138487371Y-115155311D01*
X138464833Y-115221446D01*
X138419780Y-115260485D01*
X138263305Y-115340213D01*
X138102533Y-115457021D01*
X137962021Y-115597533D01*
X137845213Y-115758305D01*
X137754994Y-115935367D01*
X137754993Y-115935370D01*
X137693587Y-116124362D01*
X137662500Y-116320639D01*
X137662500Y-116519360D01*
X137693587Y-116715637D01*
X137754993Y-116904629D01*
X137754994Y-116904632D01*
X137845213Y-117081694D01*
X137962019Y-117242464D01*
X138102536Y-117382981D01*
X138263306Y-117499787D01*
X138381832Y-117560179D01*
X138419780Y-117579515D01*
X138470576Y-117627490D01*
X138487371Y-117695311D01*
X138464833Y-117761446D01*
X138419780Y-117800485D01*
X138263305Y-117880213D01*
X138102533Y-117997021D01*
X137962021Y-118137533D01*
X137845213Y-118298305D01*
X137754994Y-118475367D01*
X137754993Y-118475370D01*
X137693587Y-118664362D01*
X137662500Y-118860639D01*
X137662500Y-119059360D01*
X137693587Y-119255637D01*
X137754993Y-119444629D01*
X137754994Y-119444632D01*
X137845213Y-119621694D01*
X137962019Y-119782464D01*
X138102536Y-119922981D01*
X138263306Y-120039787D01*
X138381832Y-120100179D01*
X138419780Y-120119515D01*
X138470576Y-120167490D01*
X138487371Y-120235311D01*
X138464833Y-120301446D01*
X138419780Y-120340485D01*
X138263305Y-120420213D01*
X138102533Y-120537021D01*
X137962021Y-120677533D01*
X137845213Y-120838305D01*
X137754994Y-121015367D01*
X137754993Y-121015370D01*
X137693587Y-121204362D01*
X137662500Y-121400639D01*
X137662500Y-121599360D01*
X137693587Y-121795637D01*
X137754993Y-121984629D01*
X137754994Y-121984632D01*
X137845213Y-122161694D01*
X137962019Y-122322464D01*
X138102536Y-122462981D01*
X138263306Y-122579787D01*
X138381832Y-122640179D01*
X138419780Y-122659515D01*
X138470576Y-122707490D01*
X138487371Y-122775311D01*
X138464833Y-122841446D01*
X138419780Y-122880485D01*
X138263305Y-122960213D01*
X138102533Y-123077021D01*
X137962021Y-123217533D01*
X137845213Y-123378305D01*
X137754994Y-123555367D01*
X137754993Y-123555370D01*
X137693587Y-123744362D01*
X137662500Y-123940639D01*
X137662500Y-124139360D01*
X137693587Y-124335637D01*
X137754993Y-124524629D01*
X137754994Y-124524632D01*
X137845213Y-124701694D01*
X137962019Y-124862464D01*
X138102536Y-125002981D01*
X138263306Y-125119787D01*
X138420332Y-125199796D01*
X138471127Y-125247769D01*
X138487922Y-125315590D01*
X138465385Y-125381725D01*
X138420332Y-125420764D01*
X138263566Y-125500641D01*
X138226283Y-125527729D01*
X138226282Y-125527730D01*
X138840906Y-126142352D01*
X138753429Y-126165792D01*
X138652070Y-126224311D01*
X138569311Y-126307070D01*
X138510792Y-126408429D01*
X138487352Y-126495905D01*
X137872730Y-125881282D01*
X137872729Y-125881283D01*
X137845643Y-125918564D01*
X137755457Y-126095562D01*
X137694075Y-126284476D01*
X137694075Y-126284479D01*
X137663000Y-126480678D01*
X137663000Y-126679321D01*
X137694075Y-126875520D01*
X137694075Y-126875523D01*
X137755457Y-127064437D01*
X137845641Y-127241432D01*
X137872730Y-127278715D01*
X137872731Y-127278716D01*
X138487352Y-126664094D01*
X138510792Y-126751571D01*
X138569311Y-126852930D01*
X138652070Y-126935689D01*
X138753429Y-126994208D01*
X138840905Y-127017647D01*
X138226283Y-127632268D01*
X138226283Y-127632269D01*
X138263567Y-127659358D01*
X138420331Y-127739234D01*
X138471127Y-127787209D01*
X138487922Y-127855030D01*
X138465384Y-127921165D01*
X138420331Y-127960204D01*
X138263305Y-128040213D01*
X138102533Y-128157021D01*
X137962021Y-128297533D01*
X137845213Y-128458305D01*
X137754994Y-128635367D01*
X137754993Y-128635370D01*
X137693587Y-128824362D01*
X137662500Y-129020639D01*
X137662500Y-129219360D01*
X137693587Y-129415637D01*
X137754993Y-129604629D01*
X137754994Y-129604632D01*
X137845213Y-129781694D01*
X137962019Y-129942464D01*
X138102536Y-130082981D01*
X138263306Y-130199787D01*
X138350149Y-130244035D01*
X138440367Y-130290005D01*
X138440370Y-130290006D01*
X138534866Y-130320709D01*
X138629364Y-130351413D01*
X138825639Y-130382500D01*
X138825640Y-130382500D01*
X139024360Y-130382500D01*
X139024361Y-130382500D01*
X139220636Y-130351413D01*
X139409632Y-130290005D01*
X139586694Y-130199787D01*
X139747464Y-130082981D01*
X139887981Y-129942464D01*
X140004787Y-129781694D01*
X140095005Y-129604632D01*
X140156413Y-129415636D01*
X140187500Y-129219361D01*
X140187500Y-129020639D01*
X140156413Y-128824364D01*
X140095005Y-128635368D01*
X140095005Y-128635367D01*
X140004786Y-128458305D01*
X139887981Y-128297536D01*
X139747464Y-128157019D01*
X139586694Y-128040213D01*
X139429667Y-127960203D01*
X139378872Y-127912229D01*
X139362077Y-127844408D01*
X139384614Y-127778273D01*
X139429669Y-127739234D01*
X139586422Y-127659364D01*
X139623716Y-127632268D01*
X139009095Y-127017647D01*
X139096571Y-126994208D01*
X139197930Y-126935689D01*
X139280689Y-126852930D01*
X139339208Y-126751571D01*
X139362647Y-126664094D01*
X139977268Y-127278715D01*
X140004362Y-127241425D01*
X140094542Y-127064437D01*
X140155924Y-126875523D01*
X140155924Y-126875520D01*
X140187000Y-126679321D01*
X140187000Y-126480678D01*
X140155924Y-126284479D01*
X140155924Y-126284476D01*
X140094542Y-126095562D01*
X140004358Y-125918567D01*
X139977268Y-125881283D01*
X139362647Y-126495904D01*
X139339208Y-126408429D01*
X139280689Y-126307070D01*
X139197930Y-126224311D01*
X139096571Y-126165792D01*
X139009094Y-126142352D01*
X139623716Y-125527731D01*
X139623715Y-125527730D01*
X139586432Y-125500641D01*
X139429668Y-125420765D01*
X139378872Y-125372790D01*
X139362077Y-125304969D01*
X139384615Y-125238834D01*
X139429667Y-125199796D01*
X139586694Y-125119787D01*
X139747464Y-125002981D01*
X139887981Y-124862464D01*
X140004787Y-124701694D01*
X140095005Y-124524632D01*
X140156413Y-124335636D01*
X140187500Y-124139361D01*
X140187500Y-123940639D01*
X140156413Y-123744364D01*
X140095005Y-123555368D01*
X140095005Y-123555367D01*
X140004786Y-123378305D01*
X139887981Y-123217536D01*
X139747464Y-123077019D01*
X139586694Y-122960213D01*
X139430218Y-122880484D01*
X139379423Y-122832510D01*
X139362628Y-122764689D01*
X139385165Y-122698554D01*
X139430218Y-122659515D01*
X139586694Y-122579787D01*
X139747464Y-122462981D01*
X139887981Y-122322464D01*
X140004787Y-122161694D01*
X140095005Y-121984632D01*
X140156413Y-121795636D01*
X140187500Y-121599361D01*
X140187500Y-121400639D01*
X140156413Y-121204364D01*
X140095005Y-121015368D01*
X140095005Y-121015367D01*
X140004786Y-120838305D01*
X139887981Y-120677536D01*
X139747464Y-120537019D01*
X139586694Y-120420213D01*
X139430218Y-120340484D01*
X139379423Y-120292510D01*
X139362628Y-120224689D01*
X139385165Y-120158554D01*
X139430218Y-120119515D01*
X139586694Y-120039787D01*
X139747464Y-119922981D01*
X139887981Y-119782464D01*
X140004787Y-119621694D01*
X140095005Y-119444632D01*
X140156413Y-119255636D01*
X140187500Y-119059361D01*
X140187500Y-118860639D01*
X140156413Y-118664364D01*
X140095005Y-118475368D01*
X140095005Y-118475367D01*
X140004786Y-118298305D01*
X139981109Y-118265716D01*
X139887981Y-118137536D01*
X139747464Y-117997019D01*
X139586694Y-117880213D01*
X139430218Y-117800484D01*
X139379423Y-117752510D01*
X139362628Y-117684689D01*
X139385165Y-117618554D01*
X139430218Y-117579515D01*
X139586694Y-117499787D01*
X139747464Y-117382981D01*
X139887981Y-117242464D01*
X140004787Y-117081694D01*
X140095005Y-116904632D01*
X140156413Y-116715636D01*
X140187500Y-116519361D01*
X140187500Y-116320639D01*
X140156413Y-116124364D01*
X140095005Y-115935368D01*
X140095005Y-115935367D01*
X140004786Y-115758305D01*
X139887981Y-115597536D01*
X139747464Y-115457019D01*
X139586694Y-115340213D01*
X139430218Y-115260484D01*
X139379423Y-115212510D01*
X139362628Y-115144689D01*
X139385165Y-115078554D01*
X139430218Y-115039515D01*
X139586694Y-114959787D01*
X139747464Y-114842981D01*
X139887981Y-114702464D01*
X140004787Y-114541694D01*
X140095005Y-114364632D01*
X140156413Y-114175636D01*
X140187500Y-113979361D01*
X140187500Y-113780639D01*
X140156413Y-113584364D01*
X140095005Y-113395368D01*
X140095005Y-113395367D01*
X140004786Y-113218305D01*
X139887981Y-113057536D01*
X139747464Y-112917019D01*
X139586694Y-112800213D01*
X139409632Y-112709994D01*
X139409629Y-112709993D01*
X139220637Y-112648587D01*
X139122498Y-112633043D01*
X139024361Y-112617500D01*
X138825639Y-112617500D01*
X138760214Y-112627862D01*
X138629362Y-112648587D01*
X138440370Y-112709993D01*
X138440367Y-112709994D01*
X138263305Y-112800213D01*
X138102533Y-112917021D01*
X137962021Y-113057533D01*
X137845213Y-113218305D01*
X137754994Y-113395367D01*
X137754993Y-113395370D01*
X137693587Y-113584362D01*
X137662500Y-113780639D01*
X132720500Y-113780639D01*
X132720500Y-101862353D01*
X141094500Y-101862353D01*
X141094500Y-102020046D01*
X141125261Y-102174689D01*
X141125264Y-102174701D01*
X141185602Y-102320372D01*
X141185609Y-102320385D01*
X141273602Y-102452074D01*
X141294480Y-102518751D01*
X141294500Y-102520965D01*
X141294500Y-104063330D01*
X141294499Y-104063348D01*
X141294499Y-104229054D01*
X141294498Y-104229054D01*
X141335423Y-104381785D01*
X141364358Y-104431900D01*
X141364359Y-104431904D01*
X141364360Y-104431904D01*
X141404375Y-104501214D01*
X141414479Y-104518714D01*
X141414481Y-104518717D01*
X141533349Y-104637585D01*
X141533355Y-104637590D01*
X152901237Y-116005472D01*
X152934722Y-116066795D01*
X152934160Y-116119522D01*
X152934349Y-116119552D01*
X152934146Y-116120831D01*
X152934133Y-116122087D01*
X152933587Y-116124360D01*
X152902500Y-116320639D01*
X152902500Y-116519360D01*
X152933587Y-116715637D01*
X152994993Y-116904629D01*
X152994994Y-116904632D01*
X153085213Y-117081694D01*
X153202019Y-117242464D01*
X153342536Y-117382981D01*
X153503306Y-117499787D01*
X153621832Y-117560179D01*
X153659780Y-117579515D01*
X153710576Y-117627490D01*
X153727371Y-117695311D01*
X153704833Y-117761446D01*
X153659780Y-117800485D01*
X153503305Y-117880213D01*
X153342533Y-117997021D01*
X153202021Y-118137533D01*
X153085213Y-118298305D01*
X152994994Y-118475367D01*
X152994993Y-118475370D01*
X152933587Y-118664362D01*
X152902500Y-118860639D01*
X152902500Y-119059360D01*
X152933587Y-119255637D01*
X152994993Y-119444629D01*
X152994994Y-119444632D01*
X153085213Y-119621694D01*
X153202019Y-119782464D01*
X153342536Y-119922981D01*
X153503306Y-120039787D01*
X153621832Y-120100179D01*
X153659780Y-120119515D01*
X153710576Y-120167490D01*
X153727371Y-120235311D01*
X153704833Y-120301446D01*
X153659780Y-120340485D01*
X153503305Y-120420213D01*
X153342533Y-120537021D01*
X153202021Y-120677533D01*
X153085213Y-120838305D01*
X152994994Y-121015367D01*
X152994993Y-121015370D01*
X152933587Y-121204362D01*
X152902500Y-121400639D01*
X152902500Y-121599360D01*
X152933587Y-121795637D01*
X152994993Y-121984629D01*
X152994994Y-121984632D01*
X153085213Y-122161694D01*
X153202019Y-122322464D01*
X153342536Y-122462981D01*
X153503306Y-122579787D01*
X153621832Y-122640179D01*
X153659780Y-122659515D01*
X153710576Y-122707490D01*
X153727371Y-122775311D01*
X153704833Y-122841446D01*
X153659780Y-122880485D01*
X153503305Y-122960213D01*
X153342533Y-123077021D01*
X153202021Y-123217533D01*
X153085213Y-123378305D01*
X152994994Y-123555367D01*
X152994993Y-123555370D01*
X152933587Y-123744362D01*
X152902500Y-123940639D01*
X152902500Y-124139360D01*
X152933587Y-124335637D01*
X152994993Y-124524629D01*
X152994994Y-124524632D01*
X153085213Y-124701694D01*
X153202019Y-124862464D01*
X153342536Y-125002981D01*
X153503306Y-125119787D01*
X153621832Y-125180179D01*
X153659780Y-125199515D01*
X153710576Y-125247490D01*
X153727371Y-125315311D01*
X153704833Y-125381446D01*
X153659780Y-125420485D01*
X153503305Y-125500213D01*
X153342533Y-125617021D01*
X153202021Y-125757533D01*
X153085213Y-125918305D01*
X152994994Y-126095367D01*
X152994993Y-126095370D01*
X152933587Y-126284362D01*
X152902500Y-126480639D01*
X152902500Y-126679360D01*
X152933587Y-126875637D01*
X152994993Y-127064629D01*
X152994994Y-127064632D01*
X153085076Y-127241425D01*
X153085213Y-127241694D01*
X153202019Y-127402464D01*
X153342536Y-127542981D01*
X153503306Y-127659787D01*
X153621832Y-127720179D01*
X153659780Y-127739515D01*
X153710576Y-127787490D01*
X153727371Y-127855311D01*
X153704833Y-127921446D01*
X153659780Y-127960485D01*
X153503305Y-128040213D01*
X153342533Y-128157021D01*
X153202021Y-128297533D01*
X153085213Y-128458305D01*
X152994994Y-128635367D01*
X152994993Y-128635370D01*
X152933587Y-128824362D01*
X152902500Y-129020639D01*
X152902500Y-129219360D01*
X152933587Y-129415637D01*
X152994993Y-129604629D01*
X152994994Y-129604632D01*
X153085213Y-129781694D01*
X153202019Y-129942464D01*
X153342536Y-130082981D01*
X153503306Y-130199787D01*
X153590149Y-130244035D01*
X153680367Y-130290005D01*
X153680370Y-130290006D01*
X153774866Y-130320709D01*
X153869364Y-130351413D01*
X154065639Y-130382500D01*
X154065640Y-130382500D01*
X154264360Y-130382500D01*
X154264361Y-130382500D01*
X154460636Y-130351413D01*
X154649632Y-130290005D01*
X154826694Y-130199787D01*
X154987464Y-130082981D01*
X155127981Y-129942464D01*
X155244787Y-129781694D01*
X155335005Y-129604632D01*
X155396413Y-129415636D01*
X155427500Y-129219361D01*
X155427500Y-129020639D01*
X155396413Y-128824364D01*
X155335005Y-128635368D01*
X155335005Y-128635367D01*
X155244786Y-128458305D01*
X155127981Y-128297536D01*
X154987464Y-128157019D01*
X154826694Y-128040213D01*
X154670218Y-127960484D01*
X154619423Y-127912510D01*
X154602628Y-127844689D01*
X154625165Y-127778554D01*
X154670218Y-127739515D01*
X154826694Y-127659787D01*
X154987464Y-127542981D01*
X155127981Y-127402464D01*
X155244787Y-127241694D01*
X155335005Y-127064632D01*
X155396413Y-126875636D01*
X155427500Y-126679361D01*
X155427500Y-126480639D01*
X155396413Y-126284364D01*
X155335005Y-126095368D01*
X155335005Y-126095367D01*
X155289035Y-126005149D01*
X155244787Y-125918306D01*
X155127981Y-125757536D01*
X154987464Y-125617019D01*
X154826694Y-125500213D01*
X154670218Y-125420484D01*
X154619423Y-125372510D01*
X154602628Y-125304689D01*
X154625165Y-125238554D01*
X154670218Y-125199515D01*
X154826694Y-125119787D01*
X154987464Y-125002981D01*
X155127981Y-124862464D01*
X155244787Y-124701694D01*
X155335005Y-124524632D01*
X155396413Y-124335636D01*
X155427500Y-124139361D01*
X155427500Y-123940639D01*
X155396413Y-123744364D01*
X155335005Y-123555368D01*
X155335005Y-123555367D01*
X155244786Y-123378305D01*
X155127981Y-123217536D01*
X154987464Y-123077019D01*
X154826694Y-122960213D01*
X154670218Y-122880484D01*
X154619423Y-122832510D01*
X154602628Y-122764689D01*
X154625165Y-122698554D01*
X154670218Y-122659515D01*
X154826694Y-122579787D01*
X154987464Y-122462981D01*
X155127981Y-122322464D01*
X155244787Y-122161694D01*
X155335005Y-121984632D01*
X155396413Y-121795636D01*
X155427500Y-121599361D01*
X155427500Y-121400639D01*
X155396413Y-121204364D01*
X155335005Y-121015368D01*
X155335005Y-121015367D01*
X155244786Y-120838305D01*
X155127981Y-120677536D01*
X154987464Y-120537019D01*
X154826694Y-120420213D01*
X154670218Y-120340484D01*
X154619423Y-120292510D01*
X154602628Y-120224689D01*
X154625165Y-120158554D01*
X154670218Y-120119515D01*
X154826694Y-120039787D01*
X154987464Y-119922981D01*
X155127981Y-119782464D01*
X155244787Y-119621694D01*
X155335005Y-119444632D01*
X155396413Y-119255636D01*
X155427500Y-119059361D01*
X155427500Y-118860639D01*
X155396413Y-118664364D01*
X155396409Y-118664352D01*
X155395869Y-118662099D01*
X155395913Y-118661209D01*
X155395651Y-118659552D01*
X155395999Y-118659496D01*
X155396387Y-118651727D01*
X155392759Y-118641998D01*
X155398103Y-118617429D01*
X155399360Y-118592316D01*
X155405798Y-118582058D01*
X155407611Y-118573725D01*
X155428759Y-118545474D01*
X155596713Y-118377521D01*
X155596716Y-118377520D01*
X155708520Y-118265716D01*
X155758639Y-118178904D01*
X155787577Y-118128785D01*
X155828501Y-117976057D01*
X155828501Y-117817943D01*
X155828501Y-117810348D01*
X155828500Y-117810330D01*
X155828500Y-104822060D01*
X155828501Y-104822047D01*
X155828501Y-104653944D01*
X155824119Y-104637590D01*
X155787577Y-104501216D01*
X155747558Y-104431900D01*
X155708524Y-104364290D01*
X155708518Y-104364282D01*
X150614278Y-99270042D01*
X145406278Y-94062043D01*
X145372794Y-94000721D01*
X145377778Y-93931029D01*
X145419650Y-93875096D01*
X145482557Y-93851375D01*
X145482540Y-93851262D01*
X145483088Y-93851175D01*
X145484229Y-93850745D01*
X145487335Y-93850500D01*
X145487352Y-93850500D01*
X145689534Y-93818477D01*
X145884219Y-93755220D01*
X146066610Y-93662287D01*
X146159590Y-93594732D01*
X146232213Y-93541971D01*
X146232215Y-93541968D01*
X146232219Y-93541966D01*
X146376966Y-93397219D01*
X146376968Y-93397215D01*
X146376971Y-93397213D01*
X146497284Y-93231614D01*
X146497285Y-93231613D01*
X146497287Y-93231610D01*
X146544516Y-93138917D01*
X146592489Y-93088123D01*
X146660310Y-93071328D01*
X146726445Y-93093865D01*
X146765485Y-93138919D01*
X146812715Y-93231614D01*
X146933028Y-93397213D01*
X147077786Y-93541971D01*
X147232749Y-93654556D01*
X147243390Y-93662287D01*
X147359607Y-93721503D01*
X147425776Y-93755218D01*
X147425778Y-93755218D01*
X147425781Y-93755220D01*
X147449058Y-93762783D01*
X147620465Y-93818477D01*
X147718189Y-93833955D01*
X147822648Y-93850500D01*
X147822649Y-93850500D01*
X148027351Y-93850500D01*
X148027352Y-93850500D01*
X148229534Y-93818477D01*
X148424219Y-93755220D01*
X148606610Y-93662287D01*
X148699590Y-93594732D01*
X148772213Y-93541971D01*
X148772215Y-93541968D01*
X148772219Y-93541966D01*
X148916966Y-93397219D01*
X148916968Y-93397215D01*
X148916971Y-93397213D01*
X149037284Y-93231614D01*
X149037285Y-93231613D01*
X149037287Y-93231610D01*
X149084795Y-93138369D01*
X149132770Y-93087574D01*
X149200591Y-93070779D01*
X149266725Y-93093316D01*
X149305765Y-93138370D01*
X149353140Y-93231349D01*
X149473417Y-93396894D01*
X149473417Y-93396895D01*
X149618104Y-93541582D01*
X149783650Y-93661859D01*
X149965968Y-93754754D01*
X150160578Y-93817988D01*
X150215000Y-93826607D01*
X150215000Y-92783012D01*
X150272007Y-92815925D01*
X150399174Y-92850000D01*
X150530826Y-92850000D01*
X150657993Y-92815925D01*
X150715000Y-92783012D01*
X150715000Y-93826606D01*
X150769421Y-93817988D01*
X150964031Y-93754754D01*
X151146349Y-93661859D01*
X151311894Y-93541582D01*
X151311895Y-93541582D01*
X151456582Y-93396895D01*
X151456582Y-93396894D01*
X151576859Y-93231349D01*
X151669755Y-93049031D01*
X151732990Y-92854417D01*
X151765000Y-92652317D01*
X151765000Y-92600000D01*
X150898012Y-92600000D01*
X150930925Y-92542993D01*
X150965000Y-92415826D01*
X150965000Y-92284174D01*
X150930925Y-92157007D01*
X150898012Y-92100000D01*
X151765000Y-92100000D01*
X151765000Y-92047682D01*
X151732990Y-91845582D01*
X151669755Y-91650968D01*
X151576859Y-91468650D01*
X151456582Y-91303105D01*
X151456582Y-91303104D01*
X151311895Y-91158417D01*
X151146349Y-91038140D01*
X150964029Y-90945244D01*
X150769413Y-90882009D01*
X150715000Y-90873390D01*
X150715000Y-91916988D01*
X150657993Y-91884075D01*
X150530826Y-91850000D01*
X150399174Y-91850000D01*
X150272007Y-91884075D01*
X150215000Y-91916988D01*
X150215000Y-90873390D01*
X150160586Y-90882009D01*
X149965970Y-90945244D01*
X149783650Y-91038140D01*
X149618105Y-91158417D01*
X149618104Y-91158417D01*
X149473417Y-91303104D01*
X149473417Y-91303105D01*
X149353140Y-91468650D01*
X149305765Y-91561629D01*
X149257790Y-91612425D01*
X149189969Y-91629220D01*
X149123834Y-91606682D01*
X149084795Y-91561629D01*
X149037419Y-91468650D01*
X149037287Y-91468390D01*
X149029556Y-91457749D01*
X148916971Y-91302786D01*
X148772213Y-91158028D01*
X148606613Y-91037715D01*
X148606612Y-91037714D01*
X148606610Y-91037713D01*
X148549653Y-91008691D01*
X148424223Y-90944781D01*
X148229534Y-90881522D01*
X148054995Y-90853878D01*
X148027352Y-90849500D01*
X147822648Y-90849500D01*
X147798329Y-90853351D01*
X147620465Y-90881522D01*
X147425776Y-90944781D01*
X147243386Y-91037715D01*
X147077786Y-91158028D01*
X146933028Y-91302786D01*
X146812715Y-91468386D01*
X146765485Y-91561080D01*
X146717510Y-91611876D01*
X146649689Y-91628671D01*
X146583554Y-91606134D01*
X146544515Y-91561080D01*
X146497419Y-91468650D01*
X146497287Y-91468390D01*
X146489556Y-91457749D01*
X146376971Y-91302786D01*
X146232213Y-91158028D01*
X146066613Y-91037715D01*
X146066612Y-91037714D01*
X146066610Y-91037713D01*
X146009653Y-91008691D01*
X145884223Y-90944781D01*
X145689534Y-90881522D01*
X145514995Y-90853878D01*
X145487352Y-90849500D01*
X145282648Y-90849500D01*
X145258329Y-90853351D01*
X145080465Y-90881522D01*
X144885776Y-90944781D01*
X144703386Y-91037715D01*
X144537786Y-91158028D01*
X144393028Y-91302786D01*
X144272715Y-91468386D01*
X144225485Y-91561080D01*
X144177510Y-91611876D01*
X144109689Y-91628671D01*
X144043554Y-91606134D01*
X144004515Y-91561080D01*
X143957419Y-91468650D01*
X143957287Y-91468390D01*
X143949556Y-91457749D01*
X143836971Y-91302786D01*
X143692213Y-91158028D01*
X143526613Y-91037715D01*
X143526612Y-91037714D01*
X143526610Y-91037713D01*
X143469653Y-91008691D01*
X143344223Y-90944781D01*
X143149534Y-90881522D01*
X142974995Y-90853878D01*
X142947352Y-90849500D01*
X142742648Y-90849500D01*
X142718329Y-90853351D01*
X142540465Y-90881522D01*
X142345776Y-90944781D01*
X142163386Y-91037715D01*
X141997786Y-91158028D01*
X141853028Y-91302786D01*
X141732715Y-91468386D01*
X141639781Y-91650776D01*
X141576522Y-91845465D01*
X141544500Y-92047648D01*
X141544500Y-92652351D01*
X141576522Y-92854534D01*
X141639781Y-93049223D01*
X141732715Y-93231613D01*
X141853028Y-93397213D01*
X141997786Y-93541971D01*
X142152749Y-93654556D01*
X142163390Y-93662287D01*
X142279607Y-93721503D01*
X142345776Y-93755218D01*
X142345778Y-93755218D01*
X142345781Y-93755220D01*
X142369058Y-93762783D01*
X142540465Y-93818477D01*
X142638189Y-93833955D01*
X142742648Y-93850500D01*
X142742649Y-93850500D01*
X142947351Y-93850500D01*
X142947352Y-93850500D01*
X143149534Y-93818477D01*
X143314799Y-93764778D01*
X143384635Y-93762783D01*
X143440794Y-93795029D01*
X154591181Y-104945416D01*
X154624666Y-105006739D01*
X154627500Y-105033097D01*
X154627500Y-112532132D01*
X154607815Y-112599171D01*
X154555011Y-112644926D01*
X154485853Y-112654870D01*
X154465191Y-112650066D01*
X154460638Y-112648587D01*
X154460639Y-112648587D01*
X154313429Y-112625271D01*
X154264361Y-112617500D01*
X154065639Y-112617500D01*
X154000214Y-112627862D01*
X153869362Y-112648587D01*
X153680370Y-112709993D01*
X153680367Y-112709994D01*
X153503305Y-112800213D01*
X153342533Y-112917021D01*
X153202021Y-113057533D01*
X153085213Y-113218305D01*
X152994994Y-113395367D01*
X152994993Y-113395370D01*
X152933587Y-113584362D01*
X152933587Y-113584364D01*
X152902500Y-113780639D01*
X152902500Y-113979361D01*
X152904697Y-113993231D01*
X152895740Y-114062524D01*
X152850743Y-114115975D01*
X152783991Y-114136613D01*
X152716677Y-114117887D01*
X152694542Y-114100307D01*
X142531819Y-103937584D01*
X142498334Y-103876261D01*
X142495500Y-103849903D01*
X142495500Y-102520964D01*
X142500827Y-102502820D01*
X142501165Y-102483912D01*
X142514666Y-102455691D01*
X142515185Y-102453925D01*
X142516397Y-102452074D01*
X142516785Y-102451492D01*
X142516789Y-102451489D01*
X142558017Y-102389784D01*
X142573429Y-102371005D01*
X142634520Y-102309916D01*
X142713577Y-102172984D01*
X142754500Y-102020257D01*
X142754500Y-101862143D01*
X142713577Y-101709416D01*
X142712585Y-101707698D01*
X142634524Y-101572490D01*
X142634518Y-101572482D01*
X142573436Y-101511400D01*
X142558014Y-101492609D01*
X142516397Y-101430324D01*
X142495520Y-101363647D01*
X142495500Y-101361434D01*
X142495500Y-100491297D01*
X142515185Y-100424258D01*
X142531819Y-100403616D01*
X142665178Y-100270257D01*
X142909665Y-100025770D01*
X142970984Y-99992288D01*
X142973151Y-99991837D01*
X142973840Y-99991700D01*
X142973842Y-99991700D01*
X143128497Y-99960937D01*
X143274179Y-99900594D01*
X143405289Y-99812989D01*
X143516789Y-99701489D01*
X143604394Y-99570379D01*
X143664737Y-99424697D01*
X143695500Y-99270042D01*
X143695500Y-99112358D01*
X143695500Y-99112355D01*
X143695499Y-99112353D01*
X143664738Y-98957710D01*
X143664738Y-98957708D01*
X143664737Y-98957703D01*
X143664735Y-98957698D01*
X143604397Y-98812027D01*
X143604390Y-98812014D01*
X143516789Y-98680911D01*
X143516786Y-98680907D01*
X143405292Y-98569413D01*
X143405288Y-98569410D01*
X143274185Y-98481809D01*
X143274172Y-98481802D01*
X143128501Y-98421464D01*
X143128489Y-98421461D01*
X142973845Y-98390700D01*
X142973842Y-98390700D01*
X142816158Y-98390700D01*
X142816155Y-98390700D01*
X142661510Y-98421461D01*
X142661498Y-98421464D01*
X142515827Y-98481802D01*
X142515814Y-98481809D01*
X142384711Y-98569410D01*
X142384707Y-98569413D01*
X142273213Y-98680907D01*
X142273210Y-98680911D01*
X142185609Y-98812014D01*
X142185602Y-98812027D01*
X142125264Y-98957698D01*
X142125261Y-98957708D01*
X142094362Y-99113048D01*
X142061977Y-99174959D01*
X142060426Y-99176537D01*
X141526286Y-99710678D01*
X141414481Y-99822482D01*
X141414479Y-99822485D01*
X141369385Y-99900592D01*
X141369384Y-99900593D01*
X141335423Y-99959414D01*
X141335423Y-99959415D01*
X141294499Y-100112143D01*
X141294499Y-100112145D01*
X141294499Y-100280246D01*
X141294500Y-100280259D01*
X141294500Y-101361434D01*
X141274815Y-101428473D01*
X141273602Y-101430325D01*
X141185609Y-101562014D01*
X141185602Y-101562027D01*
X141125264Y-101707698D01*
X141125261Y-101707710D01*
X141094500Y-101862353D01*
X132720500Y-101862353D01*
X132720500Y-66624500D01*
X132740185Y-66557461D01*
X132792989Y-66511706D01*
X132844500Y-66500500D01*
X160095500Y-66500500D01*
X160162539Y-66520185D01*
G37*
%TD.AperFunction*%
%TD*%
M02*
