%TF.GenerationSoftware,KiCad,Pcbnew,9.0.3*%
%TF.CreationDate,2025-08-02T21:47:09-04:00*%
%TF.ProjectId,hermes,6865726d-6573-42e6-9b69-6361645f7063,rev?*%
%TF.SameCoordinates,Original*%
%TF.FileFunction,Legend,Top*%
%TF.FilePolarity,Positive*%
%FSLAX46Y46*%
G04 Gerber Fmt 4.6, Leading zero omitted, Abs format (unit mm)*
G04 Created by KiCad (PCBNEW 9.0.3) date 2025-08-02 21:47:09*
%MOMM*%
%LPD*%
G01*
G04 APERTURE LIST*
%ADD10C,0.100000*%
%ADD11C,0.150000*%
%ADD12C,0.101600*%
%ADD13C,0.120000*%
%ADD14C,0.127000*%
%ADD15C,0.504000*%
%ADD16C,0.000000*%
G04 APERTURE END LIST*
D10*
X175219924Y-94976760D02*
X175696114Y-94976760D01*
X175124686Y-95262475D02*
X175458019Y-94262475D01*
X175458019Y-94262475D02*
X175791352Y-95262475D01*
X176553257Y-95262475D02*
X176553257Y-94738665D01*
X176553257Y-94738665D02*
X176505638Y-94643427D01*
X176505638Y-94643427D02*
X176410400Y-94595808D01*
X176410400Y-94595808D02*
X176219924Y-94595808D01*
X176219924Y-94595808D02*
X176124686Y-94643427D01*
X176553257Y-95214856D02*
X176458019Y-95262475D01*
X176458019Y-95262475D02*
X176219924Y-95262475D01*
X176219924Y-95262475D02*
X176124686Y-95214856D01*
X176124686Y-95214856D02*
X176077067Y-95119617D01*
X176077067Y-95119617D02*
X176077067Y-95024379D01*
X176077067Y-95024379D02*
X176124686Y-94929141D01*
X176124686Y-94929141D02*
X176219924Y-94881522D01*
X176219924Y-94881522D02*
X176458019Y-94881522D01*
X176458019Y-94881522D02*
X176553257Y-94833903D01*
X177458019Y-95262475D02*
X177458019Y-94262475D01*
X177458019Y-95214856D02*
X177362781Y-95262475D01*
X177362781Y-95262475D02*
X177172305Y-95262475D01*
X177172305Y-95262475D02*
X177077067Y-95214856D01*
X177077067Y-95214856D02*
X177029448Y-95167236D01*
X177029448Y-95167236D02*
X176981829Y-95071998D01*
X176981829Y-95071998D02*
X176981829Y-94786284D01*
X176981829Y-94786284D02*
X177029448Y-94691046D01*
X177029448Y-94691046D02*
X177077067Y-94643427D01*
X177077067Y-94643427D02*
X177172305Y-94595808D01*
X177172305Y-94595808D02*
X177362781Y-94595808D01*
X177362781Y-94595808D02*
X177458019Y-94643427D01*
X178362781Y-95262475D02*
X178362781Y-94738665D01*
X178362781Y-94738665D02*
X178315162Y-94643427D01*
X178315162Y-94643427D02*
X178219924Y-94595808D01*
X178219924Y-94595808D02*
X178029448Y-94595808D01*
X178029448Y-94595808D02*
X177934210Y-94643427D01*
X178362781Y-95214856D02*
X178267543Y-95262475D01*
X178267543Y-95262475D02*
X178029448Y-95262475D01*
X178029448Y-95262475D02*
X177934210Y-95214856D01*
X177934210Y-95214856D02*
X177886591Y-95119617D01*
X177886591Y-95119617D02*
X177886591Y-95024379D01*
X177886591Y-95024379D02*
X177934210Y-94929141D01*
X177934210Y-94929141D02*
X178029448Y-94881522D01*
X178029448Y-94881522D02*
X178267543Y-94881522D01*
X178267543Y-94881522D02*
X178362781Y-94833903D01*
X178838972Y-95262475D02*
X178838972Y-94595808D01*
X178838972Y-94786284D02*
X178886591Y-94691046D01*
X178886591Y-94691046D02*
X178934210Y-94643427D01*
X178934210Y-94643427D02*
X179029448Y-94595808D01*
X179029448Y-94595808D02*
X179124686Y-94595808D01*
X179410401Y-95214856D02*
X179505639Y-95262475D01*
X179505639Y-95262475D02*
X179696115Y-95262475D01*
X179696115Y-95262475D02*
X179791353Y-95214856D01*
X179791353Y-95214856D02*
X179838972Y-95119617D01*
X179838972Y-95119617D02*
X179838972Y-95071998D01*
X179838972Y-95071998D02*
X179791353Y-94976760D01*
X179791353Y-94976760D02*
X179696115Y-94929141D01*
X179696115Y-94929141D02*
X179553258Y-94929141D01*
X179553258Y-94929141D02*
X179458020Y-94881522D01*
X179458020Y-94881522D02*
X179410401Y-94786284D01*
X179410401Y-94786284D02*
X179410401Y-94738665D01*
X179410401Y-94738665D02*
X179458020Y-94643427D01*
X179458020Y-94643427D02*
X179553258Y-94595808D01*
X179553258Y-94595808D02*
X179696115Y-94595808D01*
X179696115Y-94595808D02*
X179791353Y-94643427D01*
X180267544Y-95262475D02*
X180267544Y-94262475D01*
X180696115Y-95262475D02*
X180696115Y-94738665D01*
X180696115Y-94738665D02*
X180648496Y-94643427D01*
X180648496Y-94643427D02*
X180553258Y-94595808D01*
X180553258Y-94595808D02*
X180410401Y-94595808D01*
X180410401Y-94595808D02*
X180315163Y-94643427D01*
X180315163Y-94643427D02*
X180267544Y-94691046D01*
X161077065Y-96872419D02*
X161077065Y-95872419D01*
X161077065Y-96348609D02*
X161648493Y-96348609D01*
X161648493Y-96872419D02*
X161648493Y-95872419D01*
X162505636Y-96824800D02*
X162410398Y-96872419D01*
X162410398Y-96872419D02*
X162219922Y-96872419D01*
X162219922Y-96872419D02*
X162124684Y-96824800D01*
X162124684Y-96824800D02*
X162077065Y-96729561D01*
X162077065Y-96729561D02*
X162077065Y-96348609D01*
X162077065Y-96348609D02*
X162124684Y-96253371D01*
X162124684Y-96253371D02*
X162219922Y-96205752D01*
X162219922Y-96205752D02*
X162410398Y-96205752D01*
X162410398Y-96205752D02*
X162505636Y-96253371D01*
X162505636Y-96253371D02*
X162553255Y-96348609D01*
X162553255Y-96348609D02*
X162553255Y-96443847D01*
X162553255Y-96443847D02*
X162077065Y-96539085D01*
X163410398Y-96872419D02*
X163410398Y-96348609D01*
X163410398Y-96348609D02*
X163362779Y-96253371D01*
X163362779Y-96253371D02*
X163267541Y-96205752D01*
X163267541Y-96205752D02*
X163077065Y-96205752D01*
X163077065Y-96205752D02*
X162981827Y-96253371D01*
X163410398Y-96824800D02*
X163315160Y-96872419D01*
X163315160Y-96872419D02*
X163077065Y-96872419D01*
X163077065Y-96872419D02*
X162981827Y-96824800D01*
X162981827Y-96824800D02*
X162934208Y-96729561D01*
X162934208Y-96729561D02*
X162934208Y-96634323D01*
X162934208Y-96634323D02*
X162981827Y-96539085D01*
X162981827Y-96539085D02*
X163077065Y-96491466D01*
X163077065Y-96491466D02*
X163315160Y-96491466D01*
X163315160Y-96491466D02*
X163410398Y-96443847D01*
X163886589Y-96872419D02*
X163886589Y-96205752D01*
X163886589Y-96396228D02*
X163934208Y-96300990D01*
X163934208Y-96300990D02*
X163981827Y-96253371D01*
X163981827Y-96253371D02*
X164077065Y-96205752D01*
X164077065Y-96205752D02*
X164172303Y-96205752D01*
X164362780Y-96205752D02*
X164743732Y-96205752D01*
X164505637Y-95872419D02*
X164505637Y-96729561D01*
X164505637Y-96729561D02*
X164553256Y-96824800D01*
X164553256Y-96824800D02*
X164648494Y-96872419D01*
X164648494Y-96872419D02*
X164743732Y-96872419D01*
X165838971Y-96872419D02*
X165838971Y-95872419D01*
X165838971Y-95872419D02*
X166172304Y-96586704D01*
X166172304Y-96586704D02*
X166505637Y-95872419D01*
X166505637Y-95872419D02*
X166505637Y-96872419D01*
X167124685Y-96872419D02*
X167029447Y-96824800D01*
X167029447Y-96824800D02*
X166981828Y-96777180D01*
X166981828Y-96777180D02*
X166934209Y-96681942D01*
X166934209Y-96681942D02*
X166934209Y-96396228D01*
X166934209Y-96396228D02*
X166981828Y-96300990D01*
X166981828Y-96300990D02*
X167029447Y-96253371D01*
X167029447Y-96253371D02*
X167124685Y-96205752D01*
X167124685Y-96205752D02*
X167267542Y-96205752D01*
X167267542Y-96205752D02*
X167362780Y-96253371D01*
X167362780Y-96253371D02*
X167410399Y-96300990D01*
X167410399Y-96300990D02*
X167458018Y-96396228D01*
X167458018Y-96396228D02*
X167458018Y-96681942D01*
X167458018Y-96681942D02*
X167410399Y-96777180D01*
X167410399Y-96777180D02*
X167362780Y-96824800D01*
X167362780Y-96824800D02*
X167267542Y-96872419D01*
X167267542Y-96872419D02*
X167124685Y-96872419D01*
X167886590Y-96205752D02*
X167886590Y-96872419D01*
X167886590Y-96300990D02*
X167934209Y-96253371D01*
X167934209Y-96253371D02*
X168029447Y-96205752D01*
X168029447Y-96205752D02*
X168172304Y-96205752D01*
X168172304Y-96205752D02*
X168267542Y-96253371D01*
X168267542Y-96253371D02*
X168315161Y-96348609D01*
X168315161Y-96348609D02*
X168315161Y-96872419D01*
X168791352Y-96872419D02*
X168791352Y-96205752D01*
X168791352Y-95872419D02*
X168743733Y-95920038D01*
X168743733Y-95920038D02*
X168791352Y-95967657D01*
X168791352Y-95967657D02*
X168838971Y-95920038D01*
X168838971Y-95920038D02*
X168791352Y-95872419D01*
X168791352Y-95872419D02*
X168791352Y-95967657D01*
X169124685Y-96205752D02*
X169505637Y-96205752D01*
X169267542Y-95872419D02*
X169267542Y-96729561D01*
X169267542Y-96729561D02*
X169315161Y-96824800D01*
X169315161Y-96824800D02*
X169410399Y-96872419D01*
X169410399Y-96872419D02*
X169505637Y-96872419D01*
X169981828Y-96872419D02*
X169886590Y-96824800D01*
X169886590Y-96824800D02*
X169838971Y-96777180D01*
X169838971Y-96777180D02*
X169791352Y-96681942D01*
X169791352Y-96681942D02*
X169791352Y-96396228D01*
X169791352Y-96396228D02*
X169838971Y-96300990D01*
X169838971Y-96300990D02*
X169886590Y-96253371D01*
X169886590Y-96253371D02*
X169981828Y-96205752D01*
X169981828Y-96205752D02*
X170124685Y-96205752D01*
X170124685Y-96205752D02*
X170219923Y-96253371D01*
X170219923Y-96253371D02*
X170267542Y-96300990D01*
X170267542Y-96300990D02*
X170315161Y-96396228D01*
X170315161Y-96396228D02*
X170315161Y-96681942D01*
X170315161Y-96681942D02*
X170267542Y-96777180D01*
X170267542Y-96777180D02*
X170219923Y-96824800D01*
X170219923Y-96824800D02*
X170124685Y-96872419D01*
X170124685Y-96872419D02*
X169981828Y-96872419D01*
X170743733Y-96872419D02*
X170743733Y-96205752D01*
X170743733Y-96396228D02*
X170791352Y-96300990D01*
X170791352Y-96300990D02*
X170838971Y-96253371D01*
X170838971Y-96253371D02*
X170934209Y-96205752D01*
X170934209Y-96205752D02*
X171029447Y-96205752D01*
X172410400Y-97253371D02*
X172362781Y-97205752D01*
X172362781Y-97205752D02*
X172267543Y-97062895D01*
X172267543Y-97062895D02*
X172219924Y-96967657D01*
X172219924Y-96967657D02*
X172172305Y-96824800D01*
X172172305Y-96824800D02*
X172124686Y-96586704D01*
X172124686Y-96586704D02*
X172124686Y-96396228D01*
X172124686Y-96396228D02*
X172172305Y-96158133D01*
X172172305Y-96158133D02*
X172219924Y-96015276D01*
X172219924Y-96015276D02*
X172267543Y-95920038D01*
X172267543Y-95920038D02*
X172362781Y-95777180D01*
X172362781Y-95777180D02*
X172410400Y-95729561D01*
X172791353Y-96872419D02*
X172791353Y-95872419D01*
X172791353Y-95872419D02*
X173124686Y-96586704D01*
X173124686Y-96586704D02*
X173458019Y-95872419D01*
X173458019Y-95872419D02*
X173458019Y-96872419D01*
X173886591Y-96586704D02*
X174362781Y-96586704D01*
X173791353Y-96872419D02*
X174124686Y-95872419D01*
X174124686Y-95872419D02*
X174458019Y-96872419D01*
X174696115Y-95872419D02*
X175362781Y-96872419D01*
X175362781Y-95872419D02*
X174696115Y-96872419D01*
X175648496Y-95872419D02*
X176267543Y-95872419D01*
X176267543Y-95872419D02*
X175934210Y-96253371D01*
X175934210Y-96253371D02*
X176077067Y-96253371D01*
X176077067Y-96253371D02*
X176172305Y-96300990D01*
X176172305Y-96300990D02*
X176219924Y-96348609D01*
X176219924Y-96348609D02*
X176267543Y-96443847D01*
X176267543Y-96443847D02*
X176267543Y-96681942D01*
X176267543Y-96681942D02*
X176219924Y-96777180D01*
X176219924Y-96777180D02*
X176172305Y-96824800D01*
X176172305Y-96824800D02*
X176077067Y-96872419D01*
X176077067Y-96872419D02*
X175791353Y-96872419D01*
X175791353Y-96872419D02*
X175696115Y-96824800D01*
X175696115Y-96824800D02*
X175648496Y-96777180D01*
X176886591Y-95872419D02*
X176981829Y-95872419D01*
X176981829Y-95872419D02*
X177077067Y-95920038D01*
X177077067Y-95920038D02*
X177124686Y-95967657D01*
X177124686Y-95967657D02*
X177172305Y-96062895D01*
X177172305Y-96062895D02*
X177219924Y-96253371D01*
X177219924Y-96253371D02*
X177219924Y-96491466D01*
X177219924Y-96491466D02*
X177172305Y-96681942D01*
X177172305Y-96681942D02*
X177124686Y-96777180D01*
X177124686Y-96777180D02*
X177077067Y-96824800D01*
X177077067Y-96824800D02*
X176981829Y-96872419D01*
X176981829Y-96872419D02*
X176886591Y-96872419D01*
X176886591Y-96872419D02*
X176791353Y-96824800D01*
X176791353Y-96824800D02*
X176743734Y-96777180D01*
X176743734Y-96777180D02*
X176696115Y-96681942D01*
X176696115Y-96681942D02*
X176648496Y-96491466D01*
X176648496Y-96491466D02*
X176648496Y-96253371D01*
X176648496Y-96253371D02*
X176696115Y-96062895D01*
X176696115Y-96062895D02*
X176743734Y-95967657D01*
X176743734Y-95967657D02*
X176791353Y-95920038D01*
X176791353Y-95920038D02*
X176886591Y-95872419D01*
X178172305Y-96872419D02*
X177600877Y-96872419D01*
X177886591Y-96872419D02*
X177886591Y-95872419D01*
X177886591Y-95872419D02*
X177791353Y-96015276D01*
X177791353Y-96015276D02*
X177696115Y-96110514D01*
X177696115Y-96110514D02*
X177600877Y-96158133D01*
X178791353Y-95872419D02*
X178886591Y-95872419D01*
X178886591Y-95872419D02*
X178981829Y-95920038D01*
X178981829Y-95920038D02*
X179029448Y-95967657D01*
X179029448Y-95967657D02*
X179077067Y-96062895D01*
X179077067Y-96062895D02*
X179124686Y-96253371D01*
X179124686Y-96253371D02*
X179124686Y-96491466D01*
X179124686Y-96491466D02*
X179077067Y-96681942D01*
X179077067Y-96681942D02*
X179029448Y-96777180D01*
X179029448Y-96777180D02*
X178981829Y-96824800D01*
X178981829Y-96824800D02*
X178886591Y-96872419D01*
X178886591Y-96872419D02*
X178791353Y-96872419D01*
X178791353Y-96872419D02*
X178696115Y-96824800D01*
X178696115Y-96824800D02*
X178648496Y-96777180D01*
X178648496Y-96777180D02*
X178600877Y-96681942D01*
X178600877Y-96681942D02*
X178553258Y-96491466D01*
X178553258Y-96491466D02*
X178553258Y-96253371D01*
X178553258Y-96253371D02*
X178600877Y-96062895D01*
X178600877Y-96062895D02*
X178648496Y-95967657D01*
X178648496Y-95967657D02*
X178696115Y-95920038D01*
X178696115Y-95920038D02*
X178791353Y-95872419D01*
X179505639Y-95967657D02*
X179553258Y-95920038D01*
X179553258Y-95920038D02*
X179648496Y-95872419D01*
X179648496Y-95872419D02*
X179886591Y-95872419D01*
X179886591Y-95872419D02*
X179981829Y-95920038D01*
X179981829Y-95920038D02*
X180029448Y-95967657D01*
X180029448Y-95967657D02*
X180077067Y-96062895D01*
X180077067Y-96062895D02*
X180077067Y-96158133D01*
X180077067Y-96158133D02*
X180029448Y-96300990D01*
X180029448Y-96300990D02*
X179458020Y-96872419D01*
X179458020Y-96872419D02*
X180077067Y-96872419D01*
X180410401Y-97253371D02*
X180458020Y-97205752D01*
X180458020Y-97205752D02*
X180553258Y-97062895D01*
X180553258Y-97062895D02*
X180600877Y-96967657D01*
X180600877Y-96967657D02*
X180648496Y-96824800D01*
X180648496Y-96824800D02*
X180696115Y-96586704D01*
X180696115Y-96586704D02*
X180696115Y-96396228D01*
X180696115Y-96396228D02*
X180648496Y-96158133D01*
X180648496Y-96158133D02*
X180600877Y-96015276D01*
X180600877Y-96015276D02*
X180553258Y-95920038D01*
X180553258Y-95920038D02*
X180458020Y-95777180D01*
X180458020Y-95777180D02*
X180410401Y-95729561D01*
D11*
X164420833Y-83254819D02*
X164087500Y-82778628D01*
X163849405Y-83254819D02*
X163849405Y-82254819D01*
X163849405Y-82254819D02*
X164230357Y-82254819D01*
X164230357Y-82254819D02*
X164325595Y-82302438D01*
X164325595Y-82302438D02*
X164373214Y-82350057D01*
X164373214Y-82350057D02*
X164420833Y-82445295D01*
X164420833Y-82445295D02*
X164420833Y-82588152D01*
X164420833Y-82588152D02*
X164373214Y-82683390D01*
X164373214Y-82683390D02*
X164325595Y-82731009D01*
X164325595Y-82731009D02*
X164230357Y-82778628D01*
X164230357Y-82778628D02*
X163849405Y-82778628D01*
X165325595Y-82254819D02*
X164849405Y-82254819D01*
X164849405Y-82254819D02*
X164801786Y-82731009D01*
X164801786Y-82731009D02*
X164849405Y-82683390D01*
X164849405Y-82683390D02*
X164944643Y-82635771D01*
X164944643Y-82635771D02*
X165182738Y-82635771D01*
X165182738Y-82635771D02*
X165277976Y-82683390D01*
X165277976Y-82683390D02*
X165325595Y-82731009D01*
X165325595Y-82731009D02*
X165373214Y-82826247D01*
X165373214Y-82826247D02*
X165373214Y-83064342D01*
X165373214Y-83064342D02*
X165325595Y-83159580D01*
X165325595Y-83159580D02*
X165277976Y-83207200D01*
X165277976Y-83207200D02*
X165182738Y-83254819D01*
X165182738Y-83254819D02*
X164944643Y-83254819D01*
X164944643Y-83254819D02*
X164849405Y-83207200D01*
X164849405Y-83207200D02*
X164801786Y-83159580D01*
X164420833Y-77354819D02*
X164087500Y-76878628D01*
X163849405Y-77354819D02*
X163849405Y-76354819D01*
X163849405Y-76354819D02*
X164230357Y-76354819D01*
X164230357Y-76354819D02*
X164325595Y-76402438D01*
X164325595Y-76402438D02*
X164373214Y-76450057D01*
X164373214Y-76450057D02*
X164420833Y-76545295D01*
X164420833Y-76545295D02*
X164420833Y-76688152D01*
X164420833Y-76688152D02*
X164373214Y-76783390D01*
X164373214Y-76783390D02*
X164325595Y-76831009D01*
X164325595Y-76831009D02*
X164230357Y-76878628D01*
X164230357Y-76878628D02*
X163849405Y-76878628D01*
X165373214Y-77354819D02*
X164801786Y-77354819D01*
X165087500Y-77354819D02*
X165087500Y-76354819D01*
X165087500Y-76354819D02*
X164992262Y-76497676D01*
X164992262Y-76497676D02*
X164897024Y-76592914D01*
X164897024Y-76592914D02*
X164801786Y-76640533D01*
D12*
X137207190Y-70867979D02*
X137207190Y-71382026D01*
X137207190Y-71382026D02*
X137237428Y-71442502D01*
X137237428Y-71442502D02*
X137267666Y-71472741D01*
X137267666Y-71472741D02*
X137328142Y-71502979D01*
X137328142Y-71502979D02*
X137449095Y-71502979D01*
X137449095Y-71502979D02*
X137509571Y-71472741D01*
X137509571Y-71472741D02*
X137539809Y-71442502D01*
X137539809Y-71442502D02*
X137570047Y-71382026D01*
X137570047Y-71382026D02*
X137570047Y-70867979D01*
X138205047Y-71502979D02*
X137842190Y-71502979D01*
X138023618Y-71502979D02*
X138023618Y-70867979D01*
X138023618Y-70867979D02*
X137963142Y-70958693D01*
X137963142Y-70958693D02*
X137902666Y-71019169D01*
X137902666Y-71019169D02*
X137842190Y-71049407D01*
D11*
X174383333Y-86179580D02*
X174335714Y-86227200D01*
X174335714Y-86227200D02*
X174192857Y-86274819D01*
X174192857Y-86274819D02*
X174097619Y-86274819D01*
X174097619Y-86274819D02*
X173954762Y-86227200D01*
X173954762Y-86227200D02*
X173859524Y-86131961D01*
X173859524Y-86131961D02*
X173811905Y-86036723D01*
X173811905Y-86036723D02*
X173764286Y-85846247D01*
X173764286Y-85846247D02*
X173764286Y-85703390D01*
X173764286Y-85703390D02*
X173811905Y-85512914D01*
X173811905Y-85512914D02*
X173859524Y-85417676D01*
X173859524Y-85417676D02*
X173954762Y-85322438D01*
X173954762Y-85322438D02*
X174097619Y-85274819D01*
X174097619Y-85274819D02*
X174192857Y-85274819D01*
X174192857Y-85274819D02*
X174335714Y-85322438D01*
X174335714Y-85322438D02*
X174383333Y-85370057D01*
X175240476Y-85274819D02*
X175050000Y-85274819D01*
X175050000Y-85274819D02*
X174954762Y-85322438D01*
X174954762Y-85322438D02*
X174907143Y-85370057D01*
X174907143Y-85370057D02*
X174811905Y-85512914D01*
X174811905Y-85512914D02*
X174764286Y-85703390D01*
X174764286Y-85703390D02*
X174764286Y-86084342D01*
X174764286Y-86084342D02*
X174811905Y-86179580D01*
X174811905Y-86179580D02*
X174859524Y-86227200D01*
X174859524Y-86227200D02*
X174954762Y-86274819D01*
X174954762Y-86274819D02*
X175145238Y-86274819D01*
X175145238Y-86274819D02*
X175240476Y-86227200D01*
X175240476Y-86227200D02*
X175288095Y-86179580D01*
X175288095Y-86179580D02*
X175335714Y-86084342D01*
X175335714Y-86084342D02*
X175335714Y-85846247D01*
X175335714Y-85846247D02*
X175288095Y-85751009D01*
X175288095Y-85751009D02*
X175240476Y-85703390D01*
X175240476Y-85703390D02*
X175145238Y-85655771D01*
X175145238Y-85655771D02*
X174954762Y-85655771D01*
X174954762Y-85655771D02*
X174859524Y-85703390D01*
X174859524Y-85703390D02*
X174811905Y-85751009D01*
X174811905Y-85751009D02*
X174764286Y-85846247D01*
X164420833Y-86204819D02*
X164087500Y-85728628D01*
X163849405Y-86204819D02*
X163849405Y-85204819D01*
X163849405Y-85204819D02*
X164230357Y-85204819D01*
X164230357Y-85204819D02*
X164325595Y-85252438D01*
X164325595Y-85252438D02*
X164373214Y-85300057D01*
X164373214Y-85300057D02*
X164420833Y-85395295D01*
X164420833Y-85395295D02*
X164420833Y-85538152D01*
X164420833Y-85538152D02*
X164373214Y-85633390D01*
X164373214Y-85633390D02*
X164325595Y-85681009D01*
X164325595Y-85681009D02*
X164230357Y-85728628D01*
X164230357Y-85728628D02*
X163849405Y-85728628D01*
X165277976Y-85204819D02*
X165087500Y-85204819D01*
X165087500Y-85204819D02*
X164992262Y-85252438D01*
X164992262Y-85252438D02*
X164944643Y-85300057D01*
X164944643Y-85300057D02*
X164849405Y-85442914D01*
X164849405Y-85442914D02*
X164801786Y-85633390D01*
X164801786Y-85633390D02*
X164801786Y-86014342D01*
X164801786Y-86014342D02*
X164849405Y-86109580D01*
X164849405Y-86109580D02*
X164897024Y-86157200D01*
X164897024Y-86157200D02*
X164992262Y-86204819D01*
X164992262Y-86204819D02*
X165182738Y-86204819D01*
X165182738Y-86204819D02*
X165277976Y-86157200D01*
X165277976Y-86157200D02*
X165325595Y-86109580D01*
X165325595Y-86109580D02*
X165373214Y-86014342D01*
X165373214Y-86014342D02*
X165373214Y-85776247D01*
X165373214Y-85776247D02*
X165325595Y-85681009D01*
X165325595Y-85681009D02*
X165277976Y-85633390D01*
X165277976Y-85633390D02*
X165182738Y-85585771D01*
X165182738Y-85585771D02*
X164992262Y-85585771D01*
X164992262Y-85585771D02*
X164897024Y-85633390D01*
X164897024Y-85633390D02*
X164849405Y-85681009D01*
X164849405Y-85681009D02*
X164801786Y-85776247D01*
X174383333Y-80159580D02*
X174335714Y-80207200D01*
X174335714Y-80207200D02*
X174192857Y-80254819D01*
X174192857Y-80254819D02*
X174097619Y-80254819D01*
X174097619Y-80254819D02*
X173954762Y-80207200D01*
X173954762Y-80207200D02*
X173859524Y-80111961D01*
X173859524Y-80111961D02*
X173811905Y-80016723D01*
X173811905Y-80016723D02*
X173764286Y-79826247D01*
X173764286Y-79826247D02*
X173764286Y-79683390D01*
X173764286Y-79683390D02*
X173811905Y-79492914D01*
X173811905Y-79492914D02*
X173859524Y-79397676D01*
X173859524Y-79397676D02*
X173954762Y-79302438D01*
X173954762Y-79302438D02*
X174097619Y-79254819D01*
X174097619Y-79254819D02*
X174192857Y-79254819D01*
X174192857Y-79254819D02*
X174335714Y-79302438D01*
X174335714Y-79302438D02*
X174383333Y-79350057D01*
X174764286Y-79350057D02*
X174811905Y-79302438D01*
X174811905Y-79302438D02*
X174907143Y-79254819D01*
X174907143Y-79254819D02*
X175145238Y-79254819D01*
X175145238Y-79254819D02*
X175240476Y-79302438D01*
X175240476Y-79302438D02*
X175288095Y-79350057D01*
X175288095Y-79350057D02*
X175335714Y-79445295D01*
X175335714Y-79445295D02*
X175335714Y-79540533D01*
X175335714Y-79540533D02*
X175288095Y-79683390D01*
X175288095Y-79683390D02*
X174716667Y-80254819D01*
X174716667Y-80254819D02*
X175335714Y-80254819D01*
X119550819Y-84033333D02*
X120265104Y-84033333D01*
X120265104Y-84033333D02*
X120407961Y-84080952D01*
X120407961Y-84080952D02*
X120503200Y-84176190D01*
X120503200Y-84176190D02*
X120550819Y-84319047D01*
X120550819Y-84319047D02*
X120550819Y-84414285D01*
X120550819Y-83033333D02*
X120550819Y-83604761D01*
X120550819Y-83319047D02*
X119550819Y-83319047D01*
X119550819Y-83319047D02*
X119693676Y-83414285D01*
X119693676Y-83414285D02*
X119788914Y-83509523D01*
X119788914Y-83509523D02*
X119836533Y-83604761D01*
X174383333Y-83169580D02*
X174335714Y-83217200D01*
X174335714Y-83217200D02*
X174192857Y-83264819D01*
X174192857Y-83264819D02*
X174097619Y-83264819D01*
X174097619Y-83264819D02*
X173954762Y-83217200D01*
X173954762Y-83217200D02*
X173859524Y-83121961D01*
X173859524Y-83121961D02*
X173811905Y-83026723D01*
X173811905Y-83026723D02*
X173764286Y-82836247D01*
X173764286Y-82836247D02*
X173764286Y-82693390D01*
X173764286Y-82693390D02*
X173811905Y-82502914D01*
X173811905Y-82502914D02*
X173859524Y-82407676D01*
X173859524Y-82407676D02*
X173954762Y-82312438D01*
X173954762Y-82312438D02*
X174097619Y-82264819D01*
X174097619Y-82264819D02*
X174192857Y-82264819D01*
X174192857Y-82264819D02*
X174335714Y-82312438D01*
X174335714Y-82312438D02*
X174383333Y-82360057D01*
X175288095Y-82264819D02*
X174811905Y-82264819D01*
X174811905Y-82264819D02*
X174764286Y-82741009D01*
X174764286Y-82741009D02*
X174811905Y-82693390D01*
X174811905Y-82693390D02*
X174907143Y-82645771D01*
X174907143Y-82645771D02*
X175145238Y-82645771D01*
X175145238Y-82645771D02*
X175240476Y-82693390D01*
X175240476Y-82693390D02*
X175288095Y-82741009D01*
X175288095Y-82741009D02*
X175335714Y-82836247D01*
X175335714Y-82836247D02*
X175335714Y-83074342D01*
X175335714Y-83074342D02*
X175288095Y-83169580D01*
X175288095Y-83169580D02*
X175240476Y-83217200D01*
X175240476Y-83217200D02*
X175145238Y-83264819D01*
X175145238Y-83264819D02*
X174907143Y-83264819D01*
X174907143Y-83264819D02*
X174811905Y-83217200D01*
X174811905Y-83217200D02*
X174764286Y-83169580D01*
X183758095Y-78484819D02*
X183758095Y-79294342D01*
X183758095Y-79294342D02*
X183805714Y-79389580D01*
X183805714Y-79389580D02*
X183853333Y-79437200D01*
X183853333Y-79437200D02*
X183948571Y-79484819D01*
X183948571Y-79484819D02*
X184139047Y-79484819D01*
X184139047Y-79484819D02*
X184234285Y-79437200D01*
X184234285Y-79437200D02*
X184281904Y-79389580D01*
X184281904Y-79389580D02*
X184329523Y-79294342D01*
X184329523Y-79294342D02*
X184329523Y-78484819D01*
X184758095Y-78580057D02*
X184805714Y-78532438D01*
X184805714Y-78532438D02*
X184900952Y-78484819D01*
X184900952Y-78484819D02*
X185139047Y-78484819D01*
X185139047Y-78484819D02*
X185234285Y-78532438D01*
X185234285Y-78532438D02*
X185281904Y-78580057D01*
X185281904Y-78580057D02*
X185329523Y-78675295D01*
X185329523Y-78675295D02*
X185329523Y-78770533D01*
X185329523Y-78770533D02*
X185281904Y-78913390D01*
X185281904Y-78913390D02*
X184710476Y-79484819D01*
X184710476Y-79484819D02*
X185329523Y-79484819D01*
X174383333Y-77149580D02*
X174335714Y-77197200D01*
X174335714Y-77197200D02*
X174192857Y-77244819D01*
X174192857Y-77244819D02*
X174097619Y-77244819D01*
X174097619Y-77244819D02*
X173954762Y-77197200D01*
X173954762Y-77197200D02*
X173859524Y-77101961D01*
X173859524Y-77101961D02*
X173811905Y-77006723D01*
X173811905Y-77006723D02*
X173764286Y-76816247D01*
X173764286Y-76816247D02*
X173764286Y-76673390D01*
X173764286Y-76673390D02*
X173811905Y-76482914D01*
X173811905Y-76482914D02*
X173859524Y-76387676D01*
X173859524Y-76387676D02*
X173954762Y-76292438D01*
X173954762Y-76292438D02*
X174097619Y-76244819D01*
X174097619Y-76244819D02*
X174192857Y-76244819D01*
X174192857Y-76244819D02*
X174335714Y-76292438D01*
X174335714Y-76292438D02*
X174383333Y-76340057D01*
X175335714Y-77244819D02*
X174764286Y-77244819D01*
X175050000Y-77244819D02*
X175050000Y-76244819D01*
X175050000Y-76244819D02*
X174954762Y-76387676D01*
X174954762Y-76387676D02*
X174859524Y-76482914D01*
X174859524Y-76482914D02*
X174764286Y-76530533D01*
X164420833Y-80304819D02*
X164087500Y-79828628D01*
X163849405Y-80304819D02*
X163849405Y-79304819D01*
X163849405Y-79304819D02*
X164230357Y-79304819D01*
X164230357Y-79304819D02*
X164325595Y-79352438D01*
X164325595Y-79352438D02*
X164373214Y-79400057D01*
X164373214Y-79400057D02*
X164420833Y-79495295D01*
X164420833Y-79495295D02*
X164420833Y-79638152D01*
X164420833Y-79638152D02*
X164373214Y-79733390D01*
X164373214Y-79733390D02*
X164325595Y-79781009D01*
X164325595Y-79781009D02*
X164230357Y-79828628D01*
X164230357Y-79828628D02*
X163849405Y-79828628D01*
X164801786Y-79400057D02*
X164849405Y-79352438D01*
X164849405Y-79352438D02*
X164944643Y-79304819D01*
X164944643Y-79304819D02*
X165182738Y-79304819D01*
X165182738Y-79304819D02*
X165277976Y-79352438D01*
X165277976Y-79352438D02*
X165325595Y-79400057D01*
X165325595Y-79400057D02*
X165373214Y-79495295D01*
X165373214Y-79495295D02*
X165373214Y-79590533D01*
X165373214Y-79590533D02*
X165325595Y-79733390D01*
X165325595Y-79733390D02*
X164754167Y-80304819D01*
X164754167Y-80304819D02*
X165373214Y-80304819D01*
D13*
%TO.C,R5*%
X164360436Y-83715000D02*
X164814564Y-83715000D01*
X164360436Y-85185000D02*
X164814564Y-85185000D01*
%TO.C,R1*%
X164360436Y-77815000D02*
X164814564Y-77815000D01*
X164360436Y-79285000D02*
X164814564Y-79285000D01*
D14*
%TO.C,U1*%
X137301000Y-91723500D02*
X137301000Y-74578500D01*
X139206000Y-93628500D02*
X153176000Y-93628500D01*
X141696000Y-72673500D02*
X141699728Y-71763228D01*
X142199728Y-71263500D02*
X150195000Y-71263500D01*
X150695000Y-71763500D02*
X150695000Y-72673500D01*
D10*
X153176000Y-72673500D02*
X139206000Y-72673500D01*
D14*
X153176000Y-72673500D02*
X139206000Y-72673500D01*
X155081000Y-91723500D02*
X155081000Y-74578500D01*
X137301000Y-74578500D02*
G75*
G02*
X139206000Y-72673500I1905001J-1D01*
G01*
X139206000Y-93628500D02*
G75*
G02*
X137301000Y-91723500I1J1905001D01*
G01*
X141699728Y-71763228D02*
G75*
G02*
X142199728Y-71263501I500018J-291D01*
G01*
X150195000Y-71263500D02*
G75*
G02*
X150695000Y-71763500I0J-500000D01*
G01*
X153176000Y-72673500D02*
G75*
G02*
X155081000Y-74578500I0J-1905000D01*
G01*
X155081000Y-91723500D02*
G75*
G02*
X153176000Y-93628500I-1905000J0D01*
G01*
D15*
X137493000Y-72914500D02*
G75*
G02*
X136989000Y-72914500I-252000J0D01*
G01*
X136989000Y-72914500D02*
G75*
G02*
X137493000Y-72914500I252000J0D01*
G01*
X138636000Y-73794500D02*
G75*
G02*
X138132000Y-73794500I-252000J0D01*
G01*
X138132000Y-73794500D02*
G75*
G02*
X138636000Y-73794500I252000J0D01*
G01*
D13*
%TO.C,C6*%
X174288748Y-86765000D02*
X174811252Y-86765000D01*
X174288748Y-88235000D02*
X174811252Y-88235000D01*
D16*
%TO.C,G\u002A\u002A\u002A*%
G36*
X186598018Y-95331160D02*
G01*
X186737437Y-95339104D01*
X186857198Y-95353880D01*
X186920000Y-95367450D01*
X187171987Y-95456902D01*
X187403588Y-95579627D01*
X187612294Y-95733115D01*
X187795594Y-95914855D01*
X187950978Y-96122337D01*
X188075938Y-96353051D01*
X188167962Y-96604486D01*
X188172345Y-96620047D01*
X188191703Y-96719954D01*
X188204240Y-96847461D01*
X188209953Y-96990754D01*
X188208839Y-97138018D01*
X188200895Y-97277437D01*
X188186119Y-97397198D01*
X188172549Y-97460000D01*
X188083794Y-97709775D01*
X187961807Y-97940218D01*
X187809417Y-98148481D01*
X187629457Y-98331717D01*
X187424758Y-98487081D01*
X187198152Y-98611726D01*
X186952469Y-98702806D01*
X186930000Y-98709127D01*
X186860646Y-98722606D01*
X186762924Y-98734442D01*
X186648240Y-98744000D01*
X186528001Y-98750642D01*
X186413613Y-98753734D01*
X186316484Y-98752638D01*
X186250000Y-98747047D01*
X186054721Y-98701447D01*
X185852144Y-98628721D01*
X185657135Y-98535042D01*
X185493129Y-98432766D01*
X185300878Y-98271071D01*
X185133039Y-98079987D01*
X184992626Y-97863919D01*
X184882653Y-97627273D01*
X184827654Y-97459952D01*
X184808296Y-97360045D01*
X184795759Y-97232538D01*
X184790046Y-97089245D01*
X184791028Y-96959419D01*
X184930193Y-96959419D01*
X184930990Y-97140708D01*
X184947840Y-97313262D01*
X184975925Y-97445983D01*
X185064159Y-97685940D01*
X185184464Y-97904199D01*
X185334169Y-98098330D01*
X185510601Y-98265899D01*
X185711087Y-98404478D01*
X185932955Y-98511633D01*
X186173534Y-98584935D01*
X186243278Y-98598953D01*
X186351658Y-98610286D01*
X186484410Y-98612064D01*
X186627274Y-98605104D01*
X186765990Y-98590223D01*
X186886299Y-98568235D01*
X186916572Y-98560404D01*
X187153237Y-98473437D01*
X187369326Y-98353370D01*
X187562193Y-98202859D01*
X187729188Y-98024561D01*
X187867663Y-97821133D01*
X187974970Y-97595234D01*
X188023296Y-97450000D01*
X188054563Y-97295764D01*
X188069806Y-97120580D01*
X188069009Y-96939291D01*
X188052159Y-96766737D01*
X188024074Y-96634016D01*
X187935450Y-96392659D01*
X187814687Y-96173559D01*
X187664040Y-95978977D01*
X187485763Y-95811176D01*
X187282112Y-95672417D01*
X187055342Y-95564961D01*
X186910000Y-95516703D01*
X186755764Y-95485436D01*
X186580580Y-95470193D01*
X186399291Y-95470990D01*
X186226737Y-95487840D01*
X186094016Y-95515925D01*
X185852659Y-95604549D01*
X185633559Y-95725312D01*
X185438977Y-95875959D01*
X185271176Y-96054236D01*
X185132417Y-96257887D01*
X185024961Y-96484657D01*
X184976703Y-96630000D01*
X184945436Y-96784235D01*
X184930193Y-96959419D01*
X184791028Y-96959419D01*
X184791160Y-96941981D01*
X184799104Y-96802562D01*
X184813880Y-96682801D01*
X184827450Y-96620000D01*
X184916902Y-96368012D01*
X185039627Y-96136411D01*
X185193115Y-95927705D01*
X185374855Y-95744405D01*
X185582337Y-95589021D01*
X185813051Y-95464061D01*
X186064486Y-95372037D01*
X186080047Y-95367654D01*
X186179954Y-95348296D01*
X186307461Y-95335759D01*
X186450754Y-95330046D01*
X186598018Y-95331160D01*
G37*
G36*
X191500000Y-95000000D02*
G01*
X191500000Y-100000000D01*
X186500000Y-100000000D01*
X181500000Y-100000000D01*
X181500000Y-99900000D01*
X181600000Y-99900000D01*
X186500000Y-99900000D01*
X191400000Y-99900000D01*
X191400000Y-96150000D01*
X191400000Y-92400000D01*
X190504471Y-92400000D01*
X189608943Y-92400000D01*
X189164719Y-92635000D01*
X188720495Y-92870000D01*
X188720247Y-92965642D01*
X188702763Y-93091178D01*
X188654924Y-93198893D01*
X188582613Y-93286141D01*
X188491713Y-93350276D01*
X188388106Y-93388652D01*
X188277675Y-93398625D01*
X188166303Y-93377549D01*
X188059872Y-93322777D01*
X188012478Y-93283939D01*
X187936245Y-93187703D01*
X187893576Y-93078972D01*
X187884410Y-92978773D01*
X188070000Y-92978773D01*
X188087432Y-93076030D01*
X188137651Y-93153135D01*
X188210000Y-93201942D01*
X188286319Y-93215764D01*
X188370411Y-93200456D01*
X188447040Y-93159609D01*
X188468132Y-93141098D01*
X188507367Y-93094948D01*
X188525522Y-93048133D01*
X188529999Y-92981386D01*
X188530000Y-92980000D01*
X188525808Y-92913242D01*
X188508009Y-92866339D01*
X188468767Y-92819563D01*
X188464615Y-92815384D01*
X188417028Y-92774159D01*
X188370838Y-92754982D01*
X188306319Y-92750017D01*
X188300000Y-92750000D01*
X188233242Y-92754191D01*
X188186339Y-92771990D01*
X188139563Y-92811232D01*
X188135384Y-92815384D01*
X188093859Y-92863468D01*
X188074740Y-92910278D01*
X188070003Y-92975867D01*
X188070000Y-92978773D01*
X187884410Y-92978773D01*
X187883130Y-92964785D01*
X187903568Y-92852184D01*
X187953549Y-92748210D01*
X188031733Y-92659905D01*
X188136780Y-92594309D01*
X188144357Y-92591060D01*
X188254220Y-92564177D01*
X188370045Y-92568002D01*
X188479356Y-92600515D01*
X188569678Y-92659697D01*
X188569934Y-92659938D01*
X188582926Y-92670888D01*
X188597564Y-92676992D01*
X188618149Y-92676477D01*
X188648985Y-92667566D01*
X188694372Y-92648484D01*
X188758615Y-92617456D01*
X188846015Y-92572706D01*
X188960876Y-92512459D01*
X189080207Y-92449381D01*
X189550000Y-92200795D01*
X190475000Y-92200397D01*
X191400000Y-92200000D01*
X191400000Y-91850000D01*
X191400000Y-91500000D01*
X190164245Y-91500000D01*
X188928490Y-91500000D01*
X188481195Y-91737589D01*
X188033901Y-91975179D01*
X188031950Y-92102589D01*
X188014673Y-92234445D01*
X187966600Y-92341318D01*
X187886715Y-92424931D01*
X187816363Y-92468066D01*
X187700526Y-92510399D01*
X187590974Y-92515827D01*
X187478641Y-92484380D01*
X187446188Y-92469337D01*
X187345925Y-92400332D01*
X187275990Y-92312923D01*
X187235238Y-92213392D01*
X187222521Y-92108021D01*
X187223596Y-92100063D01*
X187400000Y-92100063D01*
X187415949Y-92174262D01*
X187456717Y-92248110D01*
X187511681Y-92302706D01*
X187515113Y-92304904D01*
X187592606Y-92335659D01*
X187673489Y-92330325D01*
X187727856Y-92309676D01*
X187791220Y-92263032D01*
X187838637Y-92197452D01*
X187859730Y-92127840D01*
X187860000Y-92119936D01*
X187843257Y-92041186D01*
X187799155Y-91968672D01*
X187736884Y-91912414D01*
X187665634Y-91882432D01*
X187639936Y-91880000D01*
X187561186Y-91896742D01*
X187488672Y-91940844D01*
X187432414Y-92003115D01*
X187402432Y-92074365D01*
X187400000Y-92100063D01*
X187223596Y-92100063D01*
X187236693Y-92003091D01*
X187276609Y-91904883D01*
X187341121Y-91819679D01*
X187429082Y-91753759D01*
X187539348Y-91713407D01*
X187585464Y-91706225D01*
X187658510Y-91702788D01*
X187720563Y-91712560D01*
X187791824Y-91739255D01*
X187810368Y-91747596D01*
X187925485Y-91800298D01*
X188399717Y-91550149D01*
X188873949Y-91300000D01*
X190136974Y-91300000D01*
X191400000Y-91300000D01*
X191400000Y-90700000D01*
X191400000Y-90100000D01*
X186500000Y-90100000D01*
X181600000Y-90100000D01*
X181600000Y-95000000D01*
X181600000Y-99900000D01*
X181500000Y-99900000D01*
X181500000Y-95000000D01*
X181500000Y-90000000D01*
X186500000Y-90000000D01*
X191500000Y-90000000D01*
X191500000Y-95000000D01*
G37*
G36*
X190776885Y-93550398D02*
G01*
X190790432Y-93560358D01*
X190834369Y-93612718D01*
X190867138Y-93690218D01*
X190890637Y-93798367D01*
X190901233Y-93881762D01*
X190908885Y-94020882D01*
X190905558Y-94168917D01*
X190892343Y-94313517D01*
X190870332Y-94442332D01*
X190843416Y-94535850D01*
X190806362Y-94633370D01*
X190853181Y-94687800D01*
X190885391Y-94739752D01*
X190899930Y-94791858D01*
X190900000Y-94794800D01*
X190883483Y-94874841D01*
X190837077Y-94966651D01*
X190765495Y-95061935D01*
X190721879Y-95108148D01*
X190622718Y-95205818D01*
X190686359Y-95248555D01*
X190740046Y-95302674D01*
X190757605Y-95365551D01*
X190741039Y-95433861D01*
X190692351Y-95504276D01*
X190613544Y-95573471D01*
X190506620Y-95638119D01*
X190430809Y-95672927D01*
X190378209Y-95697156D01*
X190354607Y-95719345D01*
X190351234Y-95750632D01*
X190353960Y-95770532D01*
X190346046Y-95840539D01*
X190300908Y-95906263D01*
X190221259Y-95965718D01*
X190109809Y-96016920D01*
X189969269Y-96057884D01*
X189958119Y-96060381D01*
X189892449Y-96077295D01*
X189854530Y-96096592D01*
X189832495Y-96126161D01*
X189822551Y-96150475D01*
X189777914Y-96216820D01*
X189728914Y-96249174D01*
X189627543Y-96285177D01*
X189495375Y-96313744D01*
X189341071Y-96333988D01*
X189173294Y-96345024D01*
X189000706Y-96345967D01*
X188857695Y-96338254D01*
X188695644Y-96313896D01*
X188564286Y-96268686D01*
X188458256Y-96199083D01*
X188372185Y-96101547D01*
X188300708Y-95972536D01*
X188299565Y-95970000D01*
X188256760Y-95864651D01*
X188234396Y-95779072D01*
X188233038Y-95752558D01*
X188384164Y-95752558D01*
X188414545Y-95870883D01*
X188440563Y-95931179D01*
X188501914Y-96035678D01*
X188574511Y-96108164D01*
X188667490Y-96156566D01*
X188718775Y-96172700D01*
X188783486Y-96183716D01*
X188877945Y-96191658D01*
X188992014Y-96196454D01*
X189115553Y-96198030D01*
X189238425Y-96196313D01*
X189350491Y-96191231D01*
X189441610Y-96182708D01*
X189470923Y-96178136D01*
X189574623Y-96154568D01*
X189644011Y-96126944D01*
X189684771Y-96091814D01*
X189702587Y-96045726D01*
X189703721Y-96036772D01*
X189708216Y-96006760D01*
X189719654Y-95985813D01*
X189745639Y-95969566D01*
X189793774Y-95953653D01*
X189871664Y-95933711D01*
X189891862Y-95928761D01*
X190021363Y-95893269D01*
X190120238Y-95857996D01*
X190185125Y-95824292D01*
X190209143Y-95801386D01*
X190200541Y-95780844D01*
X190166166Y-95747412D01*
X190128177Y-95718746D01*
X190035532Y-95655004D01*
X190202766Y-95600867D01*
X190353482Y-95547037D01*
X190468649Y-95494168D01*
X190552602Y-95440153D01*
X190576962Y-95419134D01*
X190605041Y-95381102D01*
X190595328Y-95355555D01*
X190547695Y-95342354D01*
X190505513Y-95340306D01*
X190455222Y-95331972D01*
X190421700Y-95300162D01*
X190408494Y-95277087D01*
X190389554Y-95236288D01*
X190390890Y-95210190D01*
X190417142Y-95183544D01*
X190442980Y-95163808D01*
X190501825Y-95114896D01*
X190567883Y-95052763D01*
X190633531Y-94985507D01*
X190691146Y-94921226D01*
X190733103Y-94868018D01*
X190751101Y-94836528D01*
X190750801Y-94789785D01*
X190735634Y-94771523D01*
X190705943Y-94739046D01*
X190675603Y-94691142D01*
X190675559Y-94691058D01*
X190657372Y-94649073D01*
X190658018Y-94614417D01*
X190678470Y-94567466D01*
X190682034Y-94560586D01*
X190716337Y-94475395D01*
X190740188Y-94368818D01*
X190754424Y-94235227D01*
X190759884Y-94068996D01*
X190760000Y-94036775D01*
X190760000Y-93799009D01*
X190555000Y-94006231D01*
X190373176Y-94178707D01*
X190199962Y-94318359D01*
X190028954Y-94429439D01*
X189853747Y-94516198D01*
X189702246Y-94572240D01*
X189517946Y-94640611D01*
X189332424Y-94726656D01*
X189150676Y-94826719D01*
X188977701Y-94937143D01*
X188818495Y-95054272D01*
X188678055Y-95174450D01*
X188561379Y-95294020D01*
X188473464Y-95409327D01*
X188422149Y-95508847D01*
X188386887Y-95636216D01*
X188384164Y-95752558D01*
X188233038Y-95752558D01*
X188230347Y-95700007D01*
X188242462Y-95614303D01*
X188277108Y-95488069D01*
X188328126Y-95374728D01*
X188400940Y-95265458D01*
X188500973Y-95151440D01*
X188567923Y-95085073D01*
X188812142Y-94876365D01*
X189075905Y-94699509D01*
X189363484Y-94551926D01*
X189615740Y-94452445D01*
X189732098Y-94410842D01*
X189821628Y-94375366D01*
X189895778Y-94340516D01*
X189965993Y-94300794D01*
X190043721Y-94250701D01*
X190063705Y-94237242D01*
X190271384Y-94077912D01*
X190470560Y-93889083D01*
X190650712Y-93681206D01*
X190726770Y-93578541D01*
X190753328Y-93548663D01*
X190776885Y-93550398D01*
G37*
G36*
X182260276Y-93555439D02*
G01*
X182277742Y-93579790D01*
X182350953Y-93680953D01*
X182443914Y-93794070D01*
X182545148Y-93906102D01*
X182643175Y-94004009D01*
X182681928Y-94038904D01*
X182837901Y-94166585D01*
X182980176Y-94267042D01*
X183117995Y-94345822D01*
X183260598Y-94408471D01*
X183350000Y-94439879D01*
X183625024Y-94546708D01*
X183894658Y-94685294D01*
X184148926Y-94849685D01*
X184377852Y-95033927D01*
X184435369Y-95087603D01*
X184555285Y-95212580D01*
X184644056Y-95328067D01*
X184706522Y-95442040D01*
X184747520Y-95562480D01*
X184760896Y-95624394D01*
X184770486Y-95689345D01*
X184770248Y-95742699D01*
X184758390Y-95800495D01*
X184733122Y-95878770D01*
X184732182Y-95881476D01*
X184674958Y-96021152D01*
X184608241Y-96130690D01*
X184526798Y-96213594D01*
X184425397Y-96273371D01*
X184298805Y-96313526D01*
X184141788Y-96337566D01*
X184040000Y-96345220D01*
X183947633Y-96347404D01*
X183836075Y-96345839D01*
X183725925Y-96340896D01*
X183700000Y-96339098D01*
X183522955Y-96319741D01*
X183383436Y-96291035D01*
X183279951Y-96252442D01*
X183211007Y-96203423D01*
X183177448Y-96150475D01*
X183159146Y-96111584D01*
X183131687Y-96087433D01*
X183083202Y-96070137D01*
X183041880Y-96060381D01*
X182898349Y-96020051D01*
X182784728Y-95969571D01*
X182703465Y-95910754D01*
X182657009Y-95845410D01*
X182647808Y-95775353D01*
X182648785Y-95769440D01*
X182653292Y-95729546D01*
X182641766Y-95705149D01*
X182605543Y-95685067D01*
X182573656Y-95672459D01*
X182455786Y-95617607D01*
X182361383Y-95554054D01*
X182292767Y-95485698D01*
X182252260Y-95416440D01*
X182242183Y-95350181D01*
X182264856Y-95290819D01*
X182318880Y-95244346D01*
X182376325Y-95211377D01*
X182265434Y-95091602D01*
X182176069Y-94984171D01*
X182121704Y-94891416D01*
X182101432Y-94810384D01*
X182114346Y-94738123D01*
X182142576Y-94691267D01*
X182166479Y-94657898D01*
X182175019Y-94629091D01*
X182169066Y-94590234D01*
X182151912Y-94534216D01*
X182122847Y-94414973D01*
X182102319Y-94270917D01*
X182091502Y-94116551D01*
X182091537Y-94034015D01*
X182240068Y-94034015D01*
X182244392Y-94207411D01*
X182258093Y-94347810D01*
X182282103Y-94461314D01*
X182317355Y-94554025D01*
X182320479Y-94560312D01*
X182342212Y-94609618D01*
X182344080Y-94644935D01*
X182326764Y-94686595D01*
X182324831Y-94690312D01*
X182294906Y-94738063D01*
X182266118Y-94770234D01*
X182265636Y-94770594D01*
X182248174Y-94796290D01*
X182255629Y-94838267D01*
X182258271Y-94845452D01*
X182284822Y-94889552D01*
X182334171Y-94950542D01*
X182398266Y-95019850D01*
X182469055Y-95088902D01*
X182538488Y-95149126D01*
X182557019Y-95163563D01*
X182598459Y-95196884D01*
X182612543Y-95221431D01*
X182603903Y-95252449D01*
X182591505Y-95277087D01*
X182559933Y-95322097D01*
X182518776Y-95338947D01*
X182494486Y-95340306D01*
X182426102Y-95346774D01*
X182395611Y-95365544D01*
X182402751Y-95396908D01*
X182423037Y-95420033D01*
X182471937Y-95455773D01*
X182547685Y-95498320D01*
X182639016Y-95542341D01*
X182734665Y-95582508D01*
X182823365Y-95613490D01*
X182845000Y-95619679D01*
X182899785Y-95637112D01*
X182934112Y-95653262D01*
X182940000Y-95659941D01*
X182924727Y-95678509D01*
X182885733Y-95709647D01*
X182856240Y-95730113D01*
X182772481Y-95785543D01*
X182818648Y-95822927D01*
X182865187Y-95849194D01*
X182939640Y-95878906D01*
X183030572Y-95908315D01*
X183126550Y-95933675D01*
X183204838Y-95949460D01*
X183257634Y-95963903D01*
X183283597Y-95990739D01*
X183291509Y-96015876D01*
X183306619Y-96077100D01*
X183322770Y-96111236D01*
X183347915Y-96130595D01*
X183372278Y-96140866D01*
X183445807Y-96160270D01*
X183549570Y-96176238D01*
X183673915Y-96188361D01*
X183809190Y-96196229D01*
X183945743Y-96199433D01*
X184073923Y-96197564D01*
X184184077Y-96190211D01*
X184260000Y-96178528D01*
X184374060Y-96139144D01*
X184462481Y-96075709D01*
X184532984Y-95981872D01*
X184558704Y-95932714D01*
X184606501Y-95798059D01*
X184617686Y-95668269D01*
X184591599Y-95540466D01*
X184527582Y-95411773D01*
X184424976Y-95279309D01*
X184403866Y-95256440D01*
X184214586Y-95079745D01*
X183994152Y-94915542D01*
X183750713Y-94768895D01*
X183492419Y-94644866D01*
X183303948Y-94573132D01*
X183050284Y-94466437D01*
X182808542Y-94322182D01*
X182578175Y-94139992D01*
X182380584Y-93943791D01*
X182240137Y-93790000D01*
X182240068Y-94034015D01*
X182091537Y-94034015D01*
X182091566Y-93966381D01*
X182098501Y-93873386D01*
X182118261Y-93746452D01*
X182145863Y-93653098D01*
X182183465Y-93587310D01*
X182211424Y-93558818D01*
X182238438Y-93542961D01*
X182260276Y-93555439D01*
G37*
D13*
%TO.C,R6*%
X164360436Y-86665000D02*
X164814564Y-86665000D01*
X164360436Y-88135000D02*
X164814564Y-88135000D01*
%TO.C,C2*%
X174288748Y-80745000D02*
X174811252Y-80745000D01*
X174288748Y-82215000D02*
X174811252Y-82215000D01*
%TO.C,J1*%
X105350000Y-70300000D02*
X132650000Y-70300000D01*
X105350000Y-97700000D02*
X105350000Y-70300000D01*
X112730000Y-97162000D02*
X129367000Y-97162000D01*
X112755000Y-70722000D02*
X129355000Y-70722000D01*
X112755000Y-93822000D02*
X112730000Y-97162000D01*
X112755000Y-93822000D02*
X112755000Y-70722000D01*
X129355000Y-70722000D02*
X129355000Y-93822000D01*
X129355000Y-93822000D02*
X129355000Y-96908000D01*
X129367000Y-97162000D02*
X129355000Y-96908000D01*
X129748000Y-88780000D02*
X129748000Y-79001000D01*
X132161000Y-79001000D02*
X129748000Y-79001000D01*
X132161000Y-79001000D02*
X132161000Y-88780000D01*
X132161000Y-88780000D02*
X129748000Y-88780000D01*
X132650000Y-70300000D02*
X132650000Y-97700000D01*
X132650000Y-97700000D02*
X105350000Y-97700000D01*
%TO.C,C5*%
X174288748Y-83755000D02*
X174811252Y-83755000D01*
X174288748Y-85225000D02*
X174811252Y-85225000D01*
%TO.C,U2*%
X183050000Y-80180000D02*
X185940000Y-80180000D01*
X185960000Y-86000000D02*
X182650000Y-86000000D01*
X182610000Y-80250000D02*
X182330000Y-80250000D01*
X182610000Y-79970000D01*
X182610000Y-80250000D01*
G36*
X182610000Y-80250000D02*
G01*
X182330000Y-80250000D01*
X182610000Y-79970000D01*
X182610000Y-80250000D01*
G37*
%TO.C,C1*%
X174288748Y-77735000D02*
X174811252Y-77735000D01*
X174288748Y-79205000D02*
X174811252Y-79205000D01*
%TO.C,R2*%
X164360436Y-80765000D02*
X164814564Y-80765000D01*
X164360436Y-82235000D02*
X164814564Y-82235000D01*
%TD*%
M02*
