M48
; DRILL file {KiCad 9.0.3} date 2025-08-21T16:00:54-0400
; FORMAT={-:-/ absolute / metric / decimal}
; #@! TF.CreationDate,2025-08-21T16:00:54-04:00
; #@! TF.GenerationSoftware,Kicad,Pcbnew,9.0.3
; #@! TF.FileFunction,Plated,1,2,PTH
FMAT,2
METRIC
; #@! TA.AperFunction,Plated,PTH,ViaDrill
T1C0.300
; #@! TA.AperFunction,Plated,PTH,ComponentDrill
T2C0.889
; #@! TA.AperFunction,Plated,PTH,ComponentDrill
T3C1.000
%
G90
G05
T1
X138.345Y-102.417
X140.13Y-103.985
X141.895Y-101.941
X142.895Y-99.191
X146.107Y-100.979
X151.695Y-105.0
T2
X138.925Y-113.88
X138.925Y-116.42
X138.925Y-118.96
X138.925Y-121.5
X138.925Y-124.04
X138.925Y-126.58
X138.925Y-129.12
X154.165Y-113.88
X154.165Y-116.42
X154.165Y-118.96
X154.165Y-121.5
X154.165Y-124.04
X154.165Y-126.58
X154.165Y-129.12
T3
X142.845Y-92.35
X145.385Y-92.35
X147.925Y-92.35
X150.465Y-92.35
M30
