%TF.GenerationSoftware,KiCad,Pcbnew,9.0.3*%
%TF.CreationDate,2025-08-21T16:00:50-04:00*%
%TF.ProjectId,hermes,6865726d-6573-42e6-9b69-6361645f7063,rev?*%
%TF.SameCoordinates,Original*%
%TF.FileFunction,Legend,Bot*%
%TF.FilePolarity,Positive*%
%FSLAX46Y46*%
G04 Gerber Fmt 4.6, Leading zero omitted, Abs format (unit mm)*
G04 Created by KiCad (PCBNEW 9.0.3) date 2025-08-21 16:00:50*
%MOMM*%
%LPD*%
G01*
G04 APERTURE LIST*
%ADD10C,0.100000*%
%ADD11C,0.000000*%
G04 APERTURE END LIST*
D10*
X193133183Y-50280075D02*
X193133183Y-49803885D01*
X192847468Y-50375313D02*
X193847468Y-50041980D01*
X193847468Y-50041980D02*
X192847468Y-49708647D01*
X192847468Y-48946742D02*
X193371278Y-48946742D01*
X193371278Y-48946742D02*
X193466516Y-48994361D01*
X193466516Y-48994361D02*
X193514135Y-49089599D01*
X193514135Y-49089599D02*
X193514135Y-49280075D01*
X193514135Y-49280075D02*
X193466516Y-49375313D01*
X192895088Y-48946742D02*
X192847468Y-49041980D01*
X192847468Y-49041980D02*
X192847468Y-49280075D01*
X192847468Y-49280075D02*
X192895088Y-49375313D01*
X192895088Y-49375313D02*
X192990326Y-49422932D01*
X192990326Y-49422932D02*
X193085564Y-49422932D01*
X193085564Y-49422932D02*
X193180802Y-49375313D01*
X193180802Y-49375313D02*
X193228421Y-49280075D01*
X193228421Y-49280075D02*
X193228421Y-49041980D01*
X193228421Y-49041980D02*
X193276040Y-48946742D01*
X192847468Y-48041980D02*
X193847468Y-48041980D01*
X192895088Y-48041980D02*
X192847468Y-48137218D01*
X192847468Y-48137218D02*
X192847468Y-48327694D01*
X192847468Y-48327694D02*
X192895088Y-48422932D01*
X192895088Y-48422932D02*
X192942707Y-48470551D01*
X192942707Y-48470551D02*
X193037945Y-48518170D01*
X193037945Y-48518170D02*
X193323659Y-48518170D01*
X193323659Y-48518170D02*
X193418897Y-48470551D01*
X193418897Y-48470551D02*
X193466516Y-48422932D01*
X193466516Y-48422932D02*
X193514135Y-48327694D01*
X193514135Y-48327694D02*
X193514135Y-48137218D01*
X193514135Y-48137218D02*
X193466516Y-48041980D01*
X192847468Y-47137218D02*
X193371278Y-47137218D01*
X193371278Y-47137218D02*
X193466516Y-47184837D01*
X193466516Y-47184837D02*
X193514135Y-47280075D01*
X193514135Y-47280075D02*
X193514135Y-47470551D01*
X193514135Y-47470551D02*
X193466516Y-47565789D01*
X192895088Y-47137218D02*
X192847468Y-47232456D01*
X192847468Y-47232456D02*
X192847468Y-47470551D01*
X192847468Y-47470551D02*
X192895088Y-47565789D01*
X192895088Y-47565789D02*
X192990326Y-47613408D01*
X192990326Y-47613408D02*
X193085564Y-47613408D01*
X193085564Y-47613408D02*
X193180802Y-47565789D01*
X193180802Y-47565789D02*
X193228421Y-47470551D01*
X193228421Y-47470551D02*
X193228421Y-47232456D01*
X193228421Y-47232456D02*
X193276040Y-47137218D01*
X192847468Y-46661027D02*
X193514135Y-46661027D01*
X193323659Y-46661027D02*
X193418897Y-46613408D01*
X193418897Y-46613408D02*
X193466516Y-46565789D01*
X193466516Y-46565789D02*
X193514135Y-46470551D01*
X193514135Y-46470551D02*
X193514135Y-46375313D01*
X192895088Y-46089598D02*
X192847468Y-45994360D01*
X192847468Y-45994360D02*
X192847468Y-45803884D01*
X192847468Y-45803884D02*
X192895088Y-45708646D01*
X192895088Y-45708646D02*
X192990326Y-45661027D01*
X192990326Y-45661027D02*
X193037945Y-45661027D01*
X193037945Y-45661027D02*
X193133183Y-45708646D01*
X193133183Y-45708646D02*
X193180802Y-45803884D01*
X193180802Y-45803884D02*
X193180802Y-45946741D01*
X193180802Y-45946741D02*
X193228421Y-46041979D01*
X193228421Y-46041979D02*
X193323659Y-46089598D01*
X193323659Y-46089598D02*
X193371278Y-46089598D01*
X193371278Y-46089598D02*
X193466516Y-46041979D01*
X193466516Y-46041979D02*
X193514135Y-45946741D01*
X193514135Y-45946741D02*
X193514135Y-45803884D01*
X193514135Y-45803884D02*
X193466516Y-45708646D01*
X192847468Y-45232455D02*
X193847468Y-45232455D01*
X192847468Y-44803884D02*
X193371278Y-44803884D01*
X193371278Y-44803884D02*
X193466516Y-44851503D01*
X193466516Y-44851503D02*
X193514135Y-44946741D01*
X193514135Y-44946741D02*
X193514135Y-45089598D01*
X193514135Y-45089598D02*
X193466516Y-45184836D01*
X193466516Y-45184836D02*
X193418897Y-45232455D01*
X191237524Y-64422934D02*
X192237524Y-64422934D01*
X191761334Y-64422934D02*
X191761334Y-63851506D01*
X191237524Y-63851506D02*
X192237524Y-63851506D01*
X191285144Y-62994363D02*
X191237524Y-63089601D01*
X191237524Y-63089601D02*
X191237524Y-63280077D01*
X191237524Y-63280077D02*
X191285144Y-63375315D01*
X191285144Y-63375315D02*
X191380382Y-63422934D01*
X191380382Y-63422934D02*
X191761334Y-63422934D01*
X191761334Y-63422934D02*
X191856572Y-63375315D01*
X191856572Y-63375315D02*
X191904191Y-63280077D01*
X191904191Y-63280077D02*
X191904191Y-63089601D01*
X191904191Y-63089601D02*
X191856572Y-62994363D01*
X191856572Y-62994363D02*
X191761334Y-62946744D01*
X191761334Y-62946744D02*
X191666096Y-62946744D01*
X191666096Y-62946744D02*
X191570858Y-63422934D01*
X191237524Y-62089601D02*
X191761334Y-62089601D01*
X191761334Y-62089601D02*
X191856572Y-62137220D01*
X191856572Y-62137220D02*
X191904191Y-62232458D01*
X191904191Y-62232458D02*
X191904191Y-62422934D01*
X191904191Y-62422934D02*
X191856572Y-62518172D01*
X191285144Y-62089601D02*
X191237524Y-62184839D01*
X191237524Y-62184839D02*
X191237524Y-62422934D01*
X191237524Y-62422934D02*
X191285144Y-62518172D01*
X191285144Y-62518172D02*
X191380382Y-62565791D01*
X191380382Y-62565791D02*
X191475620Y-62565791D01*
X191475620Y-62565791D02*
X191570858Y-62518172D01*
X191570858Y-62518172D02*
X191618477Y-62422934D01*
X191618477Y-62422934D02*
X191618477Y-62184839D01*
X191618477Y-62184839D02*
X191666096Y-62089601D01*
X191237524Y-61613410D02*
X191904191Y-61613410D01*
X191713715Y-61613410D02*
X191808953Y-61565791D01*
X191808953Y-61565791D02*
X191856572Y-61518172D01*
X191856572Y-61518172D02*
X191904191Y-61422934D01*
X191904191Y-61422934D02*
X191904191Y-61327696D01*
X191904191Y-61137219D02*
X191904191Y-60756267D01*
X192237524Y-60994362D02*
X191380382Y-60994362D01*
X191380382Y-60994362D02*
X191285144Y-60946743D01*
X191285144Y-60946743D02*
X191237524Y-60851505D01*
X191237524Y-60851505D02*
X191237524Y-60756267D01*
X191237524Y-59661028D02*
X192237524Y-59661028D01*
X192237524Y-59661028D02*
X191523239Y-59327695D01*
X191523239Y-59327695D02*
X192237524Y-58994362D01*
X192237524Y-58994362D02*
X191237524Y-58994362D01*
X191237524Y-58375314D02*
X191285144Y-58470552D01*
X191285144Y-58470552D02*
X191332763Y-58518171D01*
X191332763Y-58518171D02*
X191428001Y-58565790D01*
X191428001Y-58565790D02*
X191713715Y-58565790D01*
X191713715Y-58565790D02*
X191808953Y-58518171D01*
X191808953Y-58518171D02*
X191856572Y-58470552D01*
X191856572Y-58470552D02*
X191904191Y-58375314D01*
X191904191Y-58375314D02*
X191904191Y-58232457D01*
X191904191Y-58232457D02*
X191856572Y-58137219D01*
X191856572Y-58137219D02*
X191808953Y-58089600D01*
X191808953Y-58089600D02*
X191713715Y-58041981D01*
X191713715Y-58041981D02*
X191428001Y-58041981D01*
X191428001Y-58041981D02*
X191332763Y-58089600D01*
X191332763Y-58089600D02*
X191285144Y-58137219D01*
X191285144Y-58137219D02*
X191237524Y-58232457D01*
X191237524Y-58232457D02*
X191237524Y-58375314D01*
X191904191Y-57613409D02*
X191237524Y-57613409D01*
X191808953Y-57613409D02*
X191856572Y-57565790D01*
X191856572Y-57565790D02*
X191904191Y-57470552D01*
X191904191Y-57470552D02*
X191904191Y-57327695D01*
X191904191Y-57327695D02*
X191856572Y-57232457D01*
X191856572Y-57232457D02*
X191761334Y-57184838D01*
X191761334Y-57184838D02*
X191237524Y-57184838D01*
X191237524Y-56708647D02*
X191904191Y-56708647D01*
X192237524Y-56708647D02*
X192189905Y-56756266D01*
X192189905Y-56756266D02*
X192142286Y-56708647D01*
X192142286Y-56708647D02*
X192189905Y-56661028D01*
X192189905Y-56661028D02*
X192237524Y-56708647D01*
X192237524Y-56708647D02*
X192142286Y-56708647D01*
X191904191Y-56375314D02*
X191904191Y-55994362D01*
X192237524Y-56232457D02*
X191380382Y-56232457D01*
X191380382Y-56232457D02*
X191285144Y-56184838D01*
X191285144Y-56184838D02*
X191237524Y-56089600D01*
X191237524Y-56089600D02*
X191237524Y-55994362D01*
X191237524Y-55518171D02*
X191285144Y-55613409D01*
X191285144Y-55613409D02*
X191332763Y-55661028D01*
X191332763Y-55661028D02*
X191428001Y-55708647D01*
X191428001Y-55708647D02*
X191713715Y-55708647D01*
X191713715Y-55708647D02*
X191808953Y-55661028D01*
X191808953Y-55661028D02*
X191856572Y-55613409D01*
X191856572Y-55613409D02*
X191904191Y-55518171D01*
X191904191Y-55518171D02*
X191904191Y-55375314D01*
X191904191Y-55375314D02*
X191856572Y-55280076D01*
X191856572Y-55280076D02*
X191808953Y-55232457D01*
X191808953Y-55232457D02*
X191713715Y-55184838D01*
X191713715Y-55184838D02*
X191428001Y-55184838D01*
X191428001Y-55184838D02*
X191332763Y-55232457D01*
X191332763Y-55232457D02*
X191285144Y-55280076D01*
X191285144Y-55280076D02*
X191237524Y-55375314D01*
X191237524Y-55375314D02*
X191237524Y-55518171D01*
X191237524Y-54756266D02*
X191904191Y-54756266D01*
X191713715Y-54756266D02*
X191808953Y-54708647D01*
X191808953Y-54708647D02*
X191856572Y-54661028D01*
X191856572Y-54661028D02*
X191904191Y-54565790D01*
X191904191Y-54565790D02*
X191904191Y-54470552D01*
X190856572Y-53089599D02*
X190904191Y-53137218D01*
X190904191Y-53137218D02*
X191047048Y-53232456D01*
X191047048Y-53232456D02*
X191142286Y-53280075D01*
X191142286Y-53280075D02*
X191285144Y-53327694D01*
X191285144Y-53327694D02*
X191523239Y-53375313D01*
X191523239Y-53375313D02*
X191713715Y-53375313D01*
X191713715Y-53375313D02*
X191951810Y-53327694D01*
X191951810Y-53327694D02*
X192094667Y-53280075D01*
X192094667Y-53280075D02*
X192189905Y-53232456D01*
X192189905Y-53232456D02*
X192332763Y-53137218D01*
X192332763Y-53137218D02*
X192380382Y-53089599D01*
X191237524Y-52708646D02*
X192237524Y-52708646D01*
X192237524Y-52708646D02*
X191523239Y-52375313D01*
X191523239Y-52375313D02*
X192237524Y-52041980D01*
X192237524Y-52041980D02*
X191237524Y-52041980D01*
X191523239Y-51613408D02*
X191523239Y-51137218D01*
X191237524Y-51708646D02*
X192237524Y-51375313D01*
X192237524Y-51375313D02*
X191237524Y-51041980D01*
X192237524Y-50803884D02*
X191237524Y-50137218D01*
X192237524Y-50137218D02*
X191237524Y-50803884D01*
X192237524Y-49851503D02*
X192237524Y-49232456D01*
X192237524Y-49232456D02*
X191856572Y-49565789D01*
X191856572Y-49565789D02*
X191856572Y-49422932D01*
X191856572Y-49422932D02*
X191808953Y-49327694D01*
X191808953Y-49327694D02*
X191761334Y-49280075D01*
X191761334Y-49280075D02*
X191666096Y-49232456D01*
X191666096Y-49232456D02*
X191428001Y-49232456D01*
X191428001Y-49232456D02*
X191332763Y-49280075D01*
X191332763Y-49280075D02*
X191285144Y-49327694D01*
X191285144Y-49327694D02*
X191237524Y-49422932D01*
X191237524Y-49422932D02*
X191237524Y-49708646D01*
X191237524Y-49708646D02*
X191285144Y-49803884D01*
X191285144Y-49803884D02*
X191332763Y-49851503D01*
X192237524Y-48613408D02*
X192237524Y-48518170D01*
X192237524Y-48518170D02*
X192189905Y-48422932D01*
X192189905Y-48422932D02*
X192142286Y-48375313D01*
X192142286Y-48375313D02*
X192047048Y-48327694D01*
X192047048Y-48327694D02*
X191856572Y-48280075D01*
X191856572Y-48280075D02*
X191618477Y-48280075D01*
X191618477Y-48280075D02*
X191428001Y-48327694D01*
X191428001Y-48327694D02*
X191332763Y-48375313D01*
X191332763Y-48375313D02*
X191285144Y-48422932D01*
X191285144Y-48422932D02*
X191237524Y-48518170D01*
X191237524Y-48518170D02*
X191237524Y-48613408D01*
X191237524Y-48613408D02*
X191285144Y-48708646D01*
X191285144Y-48708646D02*
X191332763Y-48756265D01*
X191332763Y-48756265D02*
X191428001Y-48803884D01*
X191428001Y-48803884D02*
X191618477Y-48851503D01*
X191618477Y-48851503D02*
X191856572Y-48851503D01*
X191856572Y-48851503D02*
X192047048Y-48803884D01*
X192047048Y-48803884D02*
X192142286Y-48756265D01*
X192142286Y-48756265D02*
X192189905Y-48708646D01*
X192189905Y-48708646D02*
X192237524Y-48613408D01*
X191237524Y-47327694D02*
X191237524Y-47899122D01*
X191237524Y-47613408D02*
X192237524Y-47613408D01*
X192237524Y-47613408D02*
X192094667Y-47708646D01*
X192094667Y-47708646D02*
X191999429Y-47803884D01*
X191999429Y-47803884D02*
X191951810Y-47899122D01*
X192237524Y-46708646D02*
X192237524Y-46613408D01*
X192237524Y-46613408D02*
X192189905Y-46518170D01*
X192189905Y-46518170D02*
X192142286Y-46470551D01*
X192142286Y-46470551D02*
X192047048Y-46422932D01*
X192047048Y-46422932D02*
X191856572Y-46375313D01*
X191856572Y-46375313D02*
X191618477Y-46375313D01*
X191618477Y-46375313D02*
X191428001Y-46422932D01*
X191428001Y-46422932D02*
X191332763Y-46470551D01*
X191332763Y-46470551D02*
X191285144Y-46518170D01*
X191285144Y-46518170D02*
X191237524Y-46613408D01*
X191237524Y-46613408D02*
X191237524Y-46708646D01*
X191237524Y-46708646D02*
X191285144Y-46803884D01*
X191285144Y-46803884D02*
X191332763Y-46851503D01*
X191332763Y-46851503D02*
X191428001Y-46899122D01*
X191428001Y-46899122D02*
X191618477Y-46946741D01*
X191618477Y-46946741D02*
X191856572Y-46946741D01*
X191856572Y-46946741D02*
X192047048Y-46899122D01*
X192047048Y-46899122D02*
X192142286Y-46851503D01*
X192142286Y-46851503D02*
X192189905Y-46803884D01*
X192189905Y-46803884D02*
X192237524Y-46708646D01*
X192142286Y-45994360D02*
X192189905Y-45946741D01*
X192189905Y-45946741D02*
X192237524Y-45851503D01*
X192237524Y-45851503D02*
X192237524Y-45613408D01*
X192237524Y-45613408D02*
X192189905Y-45518170D01*
X192189905Y-45518170D02*
X192142286Y-45470551D01*
X192142286Y-45470551D02*
X192047048Y-45422932D01*
X192047048Y-45422932D02*
X191951810Y-45422932D01*
X191951810Y-45422932D02*
X191808953Y-45470551D01*
X191808953Y-45470551D02*
X191237524Y-46041979D01*
X191237524Y-46041979D02*
X191237524Y-45422932D01*
X190856572Y-45089598D02*
X190904191Y-45041979D01*
X190904191Y-45041979D02*
X191047048Y-44946741D01*
X191047048Y-44946741D02*
X191142286Y-44899122D01*
X191142286Y-44899122D02*
X191285144Y-44851503D01*
X191285144Y-44851503D02*
X191523239Y-44803884D01*
X191523239Y-44803884D02*
X191713715Y-44803884D01*
X191713715Y-44803884D02*
X191951810Y-44851503D01*
X191951810Y-44851503D02*
X192094667Y-44899122D01*
X192094667Y-44899122D02*
X192189905Y-44946741D01*
X192189905Y-44946741D02*
X192332763Y-45041979D01*
X192332763Y-45041979D02*
X192380382Y-45089598D01*
X190627580Y-61327696D02*
X190627580Y-60756268D01*
X189627580Y-61041982D02*
X190627580Y-61041982D01*
X190627580Y-60232458D02*
X190627580Y-60041982D01*
X190627580Y-60041982D02*
X190579961Y-59946744D01*
X190579961Y-59946744D02*
X190484723Y-59851506D01*
X190484723Y-59851506D02*
X190294247Y-59803887D01*
X190294247Y-59803887D02*
X189960914Y-59803887D01*
X189960914Y-59803887D02*
X189770438Y-59851506D01*
X189770438Y-59851506D02*
X189675200Y-59946744D01*
X189675200Y-59946744D02*
X189627580Y-60041982D01*
X189627580Y-60041982D02*
X189627580Y-60232458D01*
X189627580Y-60232458D02*
X189675200Y-60327696D01*
X189675200Y-60327696D02*
X189770438Y-60422934D01*
X189770438Y-60422934D02*
X189960914Y-60470553D01*
X189960914Y-60470553D02*
X190294247Y-60470553D01*
X190294247Y-60470553D02*
X190484723Y-60422934D01*
X190484723Y-60422934D02*
X190579961Y-60327696D01*
X190579961Y-60327696D02*
X190627580Y-60232458D01*
X190151390Y-59041982D02*
X190151390Y-59375315D01*
X189627580Y-59375315D02*
X190627580Y-59375315D01*
X190627580Y-59375315D02*
X190627580Y-58899125D01*
X189675200Y-57803886D02*
X189627580Y-57661029D01*
X189627580Y-57661029D02*
X189627580Y-57422934D01*
X189627580Y-57422934D02*
X189675200Y-57327696D01*
X189675200Y-57327696D02*
X189722819Y-57280077D01*
X189722819Y-57280077D02*
X189818057Y-57232458D01*
X189818057Y-57232458D02*
X189913295Y-57232458D01*
X189913295Y-57232458D02*
X190008533Y-57280077D01*
X190008533Y-57280077D02*
X190056152Y-57327696D01*
X190056152Y-57327696D02*
X190103771Y-57422934D01*
X190103771Y-57422934D02*
X190151390Y-57613410D01*
X190151390Y-57613410D02*
X190199009Y-57708648D01*
X190199009Y-57708648D02*
X190246628Y-57756267D01*
X190246628Y-57756267D02*
X190341866Y-57803886D01*
X190341866Y-57803886D02*
X190437104Y-57803886D01*
X190437104Y-57803886D02*
X190532342Y-57756267D01*
X190532342Y-57756267D02*
X190579961Y-57708648D01*
X190579961Y-57708648D02*
X190627580Y-57613410D01*
X190627580Y-57613410D02*
X190627580Y-57375315D01*
X190627580Y-57375315D02*
X190579961Y-57232458D01*
X189675200Y-56422934D02*
X189627580Y-56518172D01*
X189627580Y-56518172D02*
X189627580Y-56708648D01*
X189627580Y-56708648D02*
X189675200Y-56803886D01*
X189675200Y-56803886D02*
X189770438Y-56851505D01*
X189770438Y-56851505D02*
X190151390Y-56851505D01*
X190151390Y-56851505D02*
X190246628Y-56803886D01*
X190246628Y-56803886D02*
X190294247Y-56708648D01*
X190294247Y-56708648D02*
X190294247Y-56518172D01*
X190294247Y-56518172D02*
X190246628Y-56422934D01*
X190246628Y-56422934D02*
X190151390Y-56375315D01*
X190151390Y-56375315D02*
X190056152Y-56375315D01*
X190056152Y-56375315D02*
X189960914Y-56851505D01*
X190294247Y-55946743D02*
X189627580Y-55946743D01*
X190199009Y-55946743D02*
X190246628Y-55899124D01*
X190246628Y-55899124D02*
X190294247Y-55803886D01*
X190294247Y-55803886D02*
X190294247Y-55661029D01*
X190294247Y-55661029D02*
X190246628Y-55565791D01*
X190246628Y-55565791D02*
X190151390Y-55518172D01*
X190151390Y-55518172D02*
X189627580Y-55518172D01*
X189675200Y-55089600D02*
X189627580Y-54994362D01*
X189627580Y-54994362D02*
X189627580Y-54803886D01*
X189627580Y-54803886D02*
X189675200Y-54708648D01*
X189675200Y-54708648D02*
X189770438Y-54661029D01*
X189770438Y-54661029D02*
X189818057Y-54661029D01*
X189818057Y-54661029D02*
X189913295Y-54708648D01*
X189913295Y-54708648D02*
X189960914Y-54803886D01*
X189960914Y-54803886D02*
X189960914Y-54946743D01*
X189960914Y-54946743D02*
X190008533Y-55041981D01*
X190008533Y-55041981D02*
X190103771Y-55089600D01*
X190103771Y-55089600D02*
X190151390Y-55089600D01*
X190151390Y-55089600D02*
X190246628Y-55041981D01*
X190246628Y-55041981D02*
X190294247Y-54946743D01*
X190294247Y-54946743D02*
X190294247Y-54803886D01*
X190294247Y-54803886D02*
X190246628Y-54708648D01*
X189627580Y-54089600D02*
X189675200Y-54184838D01*
X189675200Y-54184838D02*
X189722819Y-54232457D01*
X189722819Y-54232457D02*
X189818057Y-54280076D01*
X189818057Y-54280076D02*
X190103771Y-54280076D01*
X190103771Y-54280076D02*
X190199009Y-54232457D01*
X190199009Y-54232457D02*
X190246628Y-54184838D01*
X190246628Y-54184838D02*
X190294247Y-54089600D01*
X190294247Y-54089600D02*
X190294247Y-53946743D01*
X190294247Y-53946743D02*
X190246628Y-53851505D01*
X190246628Y-53851505D02*
X190199009Y-53803886D01*
X190199009Y-53803886D02*
X190103771Y-53756267D01*
X190103771Y-53756267D02*
X189818057Y-53756267D01*
X189818057Y-53756267D02*
X189722819Y-53803886D01*
X189722819Y-53803886D02*
X189675200Y-53851505D01*
X189675200Y-53851505D02*
X189627580Y-53946743D01*
X189627580Y-53946743D02*
X189627580Y-54089600D01*
X189627580Y-53327695D02*
X190294247Y-53327695D01*
X190103771Y-53327695D02*
X190199009Y-53280076D01*
X190199009Y-53280076D02*
X190246628Y-53232457D01*
X190246628Y-53232457D02*
X190294247Y-53137219D01*
X190294247Y-53137219D02*
X190294247Y-53041981D01*
X189246628Y-51661028D02*
X189294247Y-51708647D01*
X189294247Y-51708647D02*
X189437104Y-51803885D01*
X189437104Y-51803885D02*
X189532342Y-51851504D01*
X189532342Y-51851504D02*
X189675200Y-51899123D01*
X189675200Y-51899123D02*
X189913295Y-51946742D01*
X189913295Y-51946742D02*
X190103771Y-51946742D01*
X190103771Y-51946742D02*
X190341866Y-51899123D01*
X190341866Y-51899123D02*
X190484723Y-51851504D01*
X190484723Y-51851504D02*
X190579961Y-51803885D01*
X190579961Y-51803885D02*
X190722819Y-51708647D01*
X190722819Y-51708647D02*
X190770438Y-51661028D01*
X190627580Y-51422932D02*
X189627580Y-51089599D01*
X189627580Y-51089599D02*
X190627580Y-50756266D01*
X189627580Y-49946742D02*
X189627580Y-50422932D01*
X189627580Y-50422932D02*
X190627580Y-50422932D01*
X190627580Y-49137218D02*
X190627580Y-49613408D01*
X190627580Y-49613408D02*
X190151390Y-49661027D01*
X190151390Y-49661027D02*
X190199009Y-49613408D01*
X190199009Y-49613408D02*
X190246628Y-49518170D01*
X190246628Y-49518170D02*
X190246628Y-49280075D01*
X190246628Y-49280075D02*
X190199009Y-49184837D01*
X190199009Y-49184837D02*
X190151390Y-49137218D01*
X190151390Y-49137218D02*
X190056152Y-49089599D01*
X190056152Y-49089599D02*
X189818057Y-49089599D01*
X189818057Y-49089599D02*
X189722819Y-49137218D01*
X189722819Y-49137218D02*
X189675200Y-49184837D01*
X189675200Y-49184837D02*
X189627580Y-49280075D01*
X189627580Y-49280075D02*
X189627580Y-49518170D01*
X189627580Y-49518170D02*
X189675200Y-49613408D01*
X189675200Y-49613408D02*
X189722819Y-49661027D01*
X190627580Y-48756265D02*
X190627580Y-48137218D01*
X190627580Y-48137218D02*
X190246628Y-48470551D01*
X190246628Y-48470551D02*
X190246628Y-48327694D01*
X190246628Y-48327694D02*
X190199009Y-48232456D01*
X190199009Y-48232456D02*
X190151390Y-48184837D01*
X190151390Y-48184837D02*
X190056152Y-48137218D01*
X190056152Y-48137218D02*
X189818057Y-48137218D01*
X189818057Y-48137218D02*
X189722819Y-48184837D01*
X189722819Y-48184837D02*
X189675200Y-48232456D01*
X189675200Y-48232456D02*
X189627580Y-48327694D01*
X189627580Y-48327694D02*
X189627580Y-48613408D01*
X189627580Y-48613408D02*
X189675200Y-48708646D01*
X189675200Y-48708646D02*
X189722819Y-48756265D01*
X189627580Y-47232456D02*
X189627580Y-47708646D01*
X189627580Y-47708646D02*
X190627580Y-47708646D01*
X189627580Y-46375313D02*
X189627580Y-46946741D01*
X189627580Y-46661027D02*
X190627580Y-46661027D01*
X190627580Y-46661027D02*
X190484723Y-46756265D01*
X190484723Y-46756265D02*
X190389485Y-46851503D01*
X190389485Y-46851503D02*
X190341866Y-46946741D01*
X190627580Y-46041979D02*
X189627580Y-45375313D01*
X190627580Y-45375313D02*
X189627580Y-46041979D01*
X189246628Y-45089598D02*
X189294247Y-45041979D01*
X189294247Y-45041979D02*
X189437104Y-44946741D01*
X189437104Y-44946741D02*
X189532342Y-44899122D01*
X189532342Y-44899122D02*
X189675200Y-44851503D01*
X189675200Y-44851503D02*
X189913295Y-44803884D01*
X189913295Y-44803884D02*
X190103771Y-44803884D01*
X190103771Y-44803884D02*
X190341866Y-44851503D01*
X190341866Y-44851503D02*
X190484723Y-44899122D01*
X190484723Y-44899122D02*
X190579961Y-44946741D01*
X190579961Y-44946741D02*
X190722819Y-45041979D01*
X190722819Y-45041979D02*
X190770438Y-45089598D01*
D11*
%TO.C,G\u002A\u002A\u002A*%
G36*
X189652539Y-37295760D02*
G01*
X189780046Y-37308297D01*
X189879953Y-37327655D01*
X189895514Y-37332038D01*
X190146949Y-37424062D01*
X190377663Y-37549022D01*
X190585145Y-37704406D01*
X190766885Y-37887706D01*
X190920373Y-38096412D01*
X191043098Y-38328013D01*
X191132550Y-38580000D01*
X191146120Y-38642802D01*
X191160896Y-38762563D01*
X191168840Y-38901982D01*
X191169954Y-39049246D01*
X191164241Y-39192539D01*
X191151704Y-39320046D01*
X191132346Y-39419953D01*
X191127963Y-39435514D01*
X191035939Y-39686949D01*
X190910979Y-39917663D01*
X190755595Y-40125145D01*
X190572295Y-40306885D01*
X190363589Y-40460373D01*
X190131988Y-40583098D01*
X189880000Y-40672550D01*
X189817199Y-40686120D01*
X189697438Y-40700896D01*
X189558019Y-40708840D01*
X189540581Y-40708972D01*
X189410755Y-40709954D01*
X189267462Y-40704241D01*
X189139955Y-40691704D01*
X189040048Y-40672346D01*
X188872727Y-40617347D01*
X188636081Y-40507374D01*
X188420013Y-40366961D01*
X188228929Y-40199122D01*
X188067234Y-40006871D01*
X187964958Y-39842865D01*
X187871279Y-39647856D01*
X187798553Y-39445279D01*
X187752953Y-39250000D01*
X187747362Y-39183516D01*
X187746266Y-39086387D01*
X187748180Y-39015590D01*
X187887936Y-39015590D01*
X187889714Y-39148342D01*
X187901047Y-39256722D01*
X187915065Y-39326466D01*
X187988367Y-39567045D01*
X188095522Y-39788913D01*
X188234101Y-39989399D01*
X188401670Y-40165831D01*
X188595801Y-40315536D01*
X188814060Y-40435841D01*
X189054017Y-40524075D01*
X189186738Y-40552160D01*
X189359292Y-40569010D01*
X189540581Y-40569807D01*
X189715765Y-40554564D01*
X189870000Y-40523297D01*
X190015343Y-40475039D01*
X190242113Y-40367583D01*
X190445764Y-40228824D01*
X190624041Y-40061023D01*
X190774688Y-39866441D01*
X190895451Y-39647341D01*
X190984075Y-39405984D01*
X191012160Y-39273263D01*
X191029010Y-39100709D01*
X191029807Y-38919420D01*
X191014564Y-38744236D01*
X190983297Y-38590000D01*
X190935039Y-38444658D01*
X190827583Y-38217888D01*
X190688824Y-38014237D01*
X190521023Y-37835960D01*
X190326441Y-37685313D01*
X190107341Y-37564550D01*
X189865984Y-37475926D01*
X189733263Y-37447841D01*
X189560709Y-37430991D01*
X189379420Y-37430194D01*
X189204236Y-37445437D01*
X189050000Y-37476704D01*
X188904766Y-37525030D01*
X188678867Y-37632337D01*
X188475439Y-37770812D01*
X188297141Y-37937807D01*
X188146630Y-38130674D01*
X188026563Y-38346763D01*
X187939596Y-38583428D01*
X187931765Y-38613701D01*
X187909777Y-38734010D01*
X187894896Y-38872726D01*
X187887936Y-39015590D01*
X187748180Y-39015590D01*
X187749358Y-38971999D01*
X187756000Y-38851760D01*
X187765558Y-38737076D01*
X187777394Y-38639354D01*
X187790873Y-38570000D01*
X187797194Y-38547531D01*
X187888274Y-38301848D01*
X188012919Y-38075242D01*
X188168283Y-37870543D01*
X188351519Y-37690583D01*
X188559782Y-37538193D01*
X188790225Y-37416206D01*
X189040000Y-37327451D01*
X189102802Y-37313881D01*
X189222563Y-37299105D01*
X189361982Y-37291161D01*
X189509246Y-37290047D01*
X189652539Y-37295760D01*
G37*
G36*
X196500000Y-39000000D02*
G01*
X196500000Y-44000000D01*
X191500000Y-44000000D01*
X186500000Y-44000000D01*
X186500000Y-39000000D01*
X186600000Y-39000000D01*
X186600000Y-43900000D01*
X191500000Y-43900000D01*
X196400000Y-43900000D01*
X196400000Y-39000000D01*
X196400000Y-34100000D01*
X195800000Y-34100000D01*
X195200000Y-34100000D01*
X195200000Y-35363026D01*
X195200000Y-36626051D01*
X194949851Y-37100283D01*
X194699702Y-37574515D01*
X194752404Y-37689632D01*
X194760745Y-37708176D01*
X194787440Y-37779437D01*
X194797212Y-37841490D01*
X194793775Y-37914536D01*
X194786593Y-37960652D01*
X194746241Y-38070918D01*
X194680321Y-38158879D01*
X194595117Y-38223391D01*
X194496909Y-38263307D01*
X194399937Y-38276404D01*
X194391979Y-38277479D01*
X194286608Y-38264762D01*
X194187077Y-38224010D01*
X194099668Y-38154075D01*
X194030663Y-38053812D01*
X194015620Y-38021359D01*
X193984173Y-37909026D01*
X193984254Y-37907394D01*
X194164341Y-37907394D01*
X194195096Y-37984887D01*
X194197294Y-37988319D01*
X194251890Y-38043283D01*
X194325738Y-38084051D01*
X194399937Y-38100000D01*
X194425635Y-38097568D01*
X194496885Y-38067586D01*
X194559156Y-38011328D01*
X194603258Y-37938814D01*
X194620000Y-37860064D01*
X194617568Y-37834366D01*
X194587586Y-37763116D01*
X194531328Y-37700845D01*
X194458814Y-37656743D01*
X194380064Y-37640000D01*
X194372160Y-37640270D01*
X194302548Y-37661363D01*
X194236968Y-37708780D01*
X194190324Y-37772144D01*
X194169675Y-37826511D01*
X194164341Y-37907394D01*
X193984254Y-37907394D01*
X193989601Y-37799474D01*
X194031934Y-37683637D01*
X194075069Y-37613285D01*
X194158682Y-37533400D01*
X194265555Y-37485327D01*
X194397411Y-37468050D01*
X194524821Y-37466099D01*
X194762411Y-37018805D01*
X195000000Y-36571510D01*
X195000000Y-35335755D01*
X195000000Y-34100000D01*
X194650000Y-34100000D01*
X194300000Y-34100000D01*
X194299603Y-35025000D01*
X194299205Y-35950000D01*
X194050619Y-36419793D01*
X193987541Y-36539124D01*
X193927294Y-36653985D01*
X193882544Y-36741385D01*
X193851516Y-36805628D01*
X193832434Y-36851015D01*
X193823523Y-36881851D01*
X193823008Y-36902436D01*
X193829112Y-36917074D01*
X193840062Y-36930066D01*
X193840303Y-36930322D01*
X193899485Y-37020644D01*
X193931998Y-37129955D01*
X193935823Y-37245780D01*
X193908940Y-37355643D01*
X193905691Y-37363220D01*
X193840095Y-37468267D01*
X193751790Y-37546451D01*
X193647816Y-37596432D01*
X193535215Y-37616870D01*
X193521227Y-37615590D01*
X193421028Y-37606424D01*
X193312297Y-37563755D01*
X193216061Y-37487522D01*
X193177223Y-37440128D01*
X193122451Y-37333697D01*
X193101375Y-37222325D01*
X193102156Y-37213681D01*
X193284236Y-37213681D01*
X193298058Y-37290000D01*
X193346865Y-37362349D01*
X193423970Y-37412568D01*
X193521227Y-37430000D01*
X193524133Y-37429997D01*
X193589722Y-37425260D01*
X193636532Y-37406141D01*
X193684616Y-37364616D01*
X193688768Y-37360437D01*
X193728010Y-37313661D01*
X193745809Y-37266758D01*
X193750000Y-37200000D01*
X193749983Y-37193681D01*
X193745018Y-37129162D01*
X193725841Y-37082972D01*
X193684616Y-37035385D01*
X193680437Y-37031233D01*
X193633661Y-36991991D01*
X193586758Y-36974192D01*
X193520000Y-36970000D01*
X193518614Y-36970001D01*
X193451867Y-36974478D01*
X193405052Y-36992633D01*
X193358902Y-37031868D01*
X193340391Y-37052960D01*
X193299544Y-37129589D01*
X193284236Y-37213681D01*
X193102156Y-37213681D01*
X193111348Y-37111894D01*
X193149724Y-37008287D01*
X193213859Y-36917387D01*
X193301107Y-36845076D01*
X193408822Y-36797237D01*
X193534358Y-36779753D01*
X193630000Y-36779505D01*
X193865000Y-36335281D01*
X194100000Y-35891057D01*
X194100000Y-34995529D01*
X194100000Y-34100000D01*
X190350000Y-34100000D01*
X186600000Y-34100000D01*
X186600000Y-39000000D01*
X186500000Y-39000000D01*
X186500000Y-34000000D01*
X191500000Y-34000000D01*
X196500000Y-34000000D01*
X196500000Y-39000000D01*
G37*
G36*
X192618238Y-34598767D02*
G01*
X192701633Y-34609363D01*
X192809782Y-34632862D01*
X192887282Y-34665631D01*
X192939642Y-34709568D01*
X192949602Y-34723115D01*
X192951337Y-34746672D01*
X192921459Y-34773230D01*
X192818794Y-34849288D01*
X192610917Y-35029440D01*
X192422088Y-35228616D01*
X192262758Y-35436295D01*
X192249299Y-35456279D01*
X192199206Y-35534007D01*
X192159484Y-35604222D01*
X192124634Y-35678372D01*
X192089158Y-35767902D01*
X192047555Y-35884260D01*
X191948074Y-36136516D01*
X191800491Y-36424095D01*
X191623635Y-36687858D01*
X191414927Y-36932077D01*
X191348560Y-36999027D01*
X191234542Y-37099060D01*
X191125272Y-37171874D01*
X191011931Y-37222892D01*
X190885697Y-37257538D01*
X190799993Y-37269653D01*
X190747442Y-37266962D01*
X190720928Y-37265604D01*
X190635349Y-37243240D01*
X190530000Y-37200435D01*
X190527464Y-37199292D01*
X190398453Y-37127815D01*
X190300917Y-37041744D01*
X190231314Y-36935714D01*
X190186104Y-36804356D01*
X190161746Y-36642305D01*
X190154033Y-36499294D01*
X190154661Y-36384447D01*
X190301970Y-36384447D01*
X190303546Y-36507986D01*
X190308342Y-36622055D01*
X190316284Y-36716514D01*
X190327300Y-36781225D01*
X190343434Y-36832510D01*
X190391836Y-36925489D01*
X190464322Y-36998086D01*
X190568821Y-37059437D01*
X190629117Y-37085455D01*
X190747442Y-37115836D01*
X190863784Y-37113113D01*
X190991153Y-37077851D01*
X191090673Y-37026536D01*
X191205980Y-36938621D01*
X191325550Y-36821945D01*
X191445728Y-36681505D01*
X191562857Y-36522299D01*
X191673281Y-36349324D01*
X191773344Y-36167576D01*
X191859389Y-35982054D01*
X191927760Y-35797754D01*
X191983802Y-35646253D01*
X192070561Y-35471046D01*
X192181641Y-35300038D01*
X192321293Y-35126824D01*
X192493769Y-34945000D01*
X192700991Y-34740000D01*
X192463225Y-34740000D01*
X192431004Y-34740116D01*
X192264773Y-34745576D01*
X192131182Y-34759812D01*
X192024605Y-34783663D01*
X191939414Y-34817966D01*
X191932534Y-34821530D01*
X191885583Y-34841982D01*
X191850927Y-34842628D01*
X191808942Y-34824441D01*
X191808858Y-34824397D01*
X191760954Y-34794057D01*
X191728477Y-34764366D01*
X191710215Y-34749199D01*
X191663472Y-34748899D01*
X191631982Y-34766897D01*
X191578774Y-34808854D01*
X191514493Y-34866469D01*
X191447237Y-34932117D01*
X191385104Y-34998175D01*
X191336192Y-35057020D01*
X191316456Y-35082858D01*
X191289810Y-35109110D01*
X191263712Y-35110446D01*
X191222913Y-35091506D01*
X191199838Y-35078300D01*
X191168028Y-35044778D01*
X191159694Y-34994487D01*
X191157646Y-34952305D01*
X191144445Y-34904672D01*
X191118898Y-34894959D01*
X191080866Y-34923038D01*
X191059847Y-34947398D01*
X191005832Y-35031351D01*
X190952963Y-35146518D01*
X190899133Y-35297234D01*
X190844996Y-35464468D01*
X190781254Y-35371823D01*
X190752588Y-35333834D01*
X190719156Y-35299459D01*
X190698614Y-35290857D01*
X190675708Y-35314875D01*
X190642004Y-35379762D01*
X190606731Y-35478637D01*
X190571239Y-35608138D01*
X190566289Y-35628336D01*
X190546347Y-35706226D01*
X190530434Y-35754361D01*
X190514187Y-35780346D01*
X190493240Y-35791784D01*
X190463228Y-35796279D01*
X190454274Y-35797413D01*
X190408186Y-35815229D01*
X190373056Y-35855989D01*
X190345432Y-35925377D01*
X190321864Y-36029077D01*
X190317292Y-36058390D01*
X190308769Y-36149509D01*
X190303687Y-36261575D01*
X190301970Y-36384447D01*
X190154661Y-36384447D01*
X190154976Y-36326706D01*
X190166012Y-36158929D01*
X190186256Y-36004625D01*
X190214823Y-35872457D01*
X190250826Y-35771086D01*
X190283180Y-35722086D01*
X190349525Y-35677449D01*
X190373839Y-35667505D01*
X190403408Y-35645470D01*
X190422705Y-35607551D01*
X190439619Y-35541881D01*
X190442116Y-35530731D01*
X190483080Y-35390191D01*
X190534282Y-35278741D01*
X190593737Y-35199092D01*
X190659461Y-35153954D01*
X190729468Y-35146040D01*
X190749368Y-35148766D01*
X190780655Y-35145393D01*
X190802844Y-35121791D01*
X190827073Y-35069191D01*
X190861881Y-34993380D01*
X190926529Y-34886456D01*
X190995724Y-34807649D01*
X191066139Y-34758961D01*
X191134449Y-34742395D01*
X191197326Y-34759954D01*
X191251445Y-34813641D01*
X191294182Y-34877282D01*
X191391852Y-34778121D01*
X191438065Y-34734505D01*
X191533349Y-34662923D01*
X191625159Y-34616517D01*
X191705200Y-34600000D01*
X191708142Y-34600070D01*
X191760248Y-34614609D01*
X191812200Y-34646819D01*
X191866630Y-34693638D01*
X191964150Y-34656584D01*
X192057668Y-34629668D01*
X192186483Y-34607657D01*
X192331083Y-34594442D01*
X192479118Y-34591115D01*
X192618238Y-34598767D01*
G37*
G36*
X190875606Y-40739104D02*
G01*
X190937520Y-40752480D01*
X191057960Y-40793478D01*
X191171933Y-40855944D01*
X191287420Y-40944715D01*
X191412397Y-41064631D01*
X191466073Y-41122148D01*
X191650315Y-41351074D01*
X191814706Y-41605342D01*
X191953292Y-41874976D01*
X192060121Y-42150000D01*
X192091529Y-42239402D01*
X192154178Y-42382005D01*
X192232958Y-42519824D01*
X192333415Y-42662099D01*
X192461096Y-42818072D01*
X192495991Y-42856825D01*
X192593898Y-42954852D01*
X192705930Y-43056086D01*
X192819047Y-43149047D01*
X192920210Y-43222258D01*
X192944561Y-43239724D01*
X192957039Y-43261562D01*
X192941182Y-43288576D01*
X192912690Y-43316535D01*
X192846902Y-43354137D01*
X192753548Y-43381739D01*
X192626614Y-43401499D01*
X192533619Y-43408434D01*
X192465985Y-43408463D01*
X192383449Y-43408498D01*
X192229083Y-43397681D01*
X192085027Y-43377153D01*
X191965784Y-43348088D01*
X191909766Y-43330934D01*
X191870909Y-43324981D01*
X191842102Y-43333521D01*
X191808733Y-43357424D01*
X191761877Y-43385654D01*
X191689616Y-43398568D01*
X191608584Y-43378296D01*
X191515829Y-43323931D01*
X191408398Y-43234566D01*
X191288623Y-43123675D01*
X191255654Y-43181120D01*
X191209181Y-43235144D01*
X191149819Y-43257817D01*
X191083560Y-43247740D01*
X191014302Y-43207233D01*
X190945946Y-43138617D01*
X190882393Y-43044214D01*
X190827541Y-42926344D01*
X190814933Y-42894457D01*
X190794851Y-42858234D01*
X190770454Y-42846708D01*
X190730560Y-42851215D01*
X190724647Y-42852192D01*
X190654590Y-42842991D01*
X190589246Y-42796535D01*
X190530429Y-42715272D01*
X190479949Y-42601651D01*
X190439619Y-42458120D01*
X190429863Y-42416798D01*
X190412567Y-42368313D01*
X190388416Y-42340854D01*
X190349525Y-42322552D01*
X190296577Y-42288993D01*
X190247558Y-42220049D01*
X190208965Y-42116564D01*
X190180259Y-41977045D01*
X190160902Y-41800000D01*
X190159104Y-41774075D01*
X190154161Y-41663925D01*
X190152623Y-41554257D01*
X190300567Y-41554257D01*
X190303771Y-41690810D01*
X190311639Y-41826085D01*
X190323762Y-41950430D01*
X190339730Y-42054193D01*
X190359134Y-42127722D01*
X190369405Y-42152085D01*
X190388764Y-42177230D01*
X190422900Y-42193381D01*
X190484124Y-42208491D01*
X190509261Y-42216403D01*
X190536097Y-42242366D01*
X190550540Y-42295162D01*
X190566325Y-42373450D01*
X190591685Y-42469428D01*
X190621094Y-42560360D01*
X190650806Y-42634813D01*
X190677073Y-42681352D01*
X190714457Y-42727519D01*
X190769887Y-42643760D01*
X190790353Y-42614267D01*
X190821491Y-42575273D01*
X190840059Y-42560000D01*
X190846738Y-42565888D01*
X190862888Y-42600215D01*
X190880321Y-42655000D01*
X190886510Y-42676635D01*
X190917492Y-42765335D01*
X190957659Y-42860984D01*
X191001680Y-42952315D01*
X191044227Y-43028063D01*
X191079967Y-43076963D01*
X191103092Y-43097249D01*
X191134456Y-43104389D01*
X191153226Y-43073898D01*
X191159694Y-43005514D01*
X191161053Y-42981224D01*
X191177903Y-42940067D01*
X191222913Y-42908495D01*
X191247551Y-42896097D01*
X191278569Y-42887457D01*
X191303116Y-42901541D01*
X191336437Y-42942981D01*
X191350874Y-42961512D01*
X191411098Y-43030945D01*
X191480150Y-43101734D01*
X191549458Y-43165829D01*
X191610448Y-43215178D01*
X191654548Y-43241729D01*
X191661733Y-43244371D01*
X191703710Y-43251826D01*
X191729406Y-43234364D01*
X191729766Y-43233882D01*
X191761937Y-43205094D01*
X191809688Y-43175169D01*
X191813405Y-43173236D01*
X191855065Y-43155920D01*
X191890382Y-43157788D01*
X191939688Y-43179521D01*
X191945975Y-43182645D01*
X192038686Y-43217897D01*
X192152190Y-43241907D01*
X192292589Y-43255608D01*
X192465985Y-43259932D01*
X192710000Y-43259863D01*
X192556209Y-43119416D01*
X192360008Y-42921825D01*
X192177818Y-42691458D01*
X192033563Y-42449716D01*
X191926868Y-42196052D01*
X191855134Y-42007581D01*
X191731105Y-41749287D01*
X191584458Y-41505848D01*
X191420255Y-41285414D01*
X191243560Y-41096134D01*
X191220691Y-41075024D01*
X191088227Y-40972418D01*
X190959534Y-40908401D01*
X190831731Y-40882314D01*
X190701941Y-40893499D01*
X190567286Y-40941296D01*
X190518128Y-40967016D01*
X190424291Y-41037519D01*
X190360856Y-41125940D01*
X190321472Y-41240000D01*
X190309789Y-41315923D01*
X190302436Y-41426077D01*
X190300567Y-41554257D01*
X190152623Y-41554257D01*
X190152596Y-41552367D01*
X190154780Y-41460000D01*
X190162434Y-41358212D01*
X190186474Y-41201195D01*
X190226629Y-41074603D01*
X190286406Y-40973202D01*
X190369310Y-40891759D01*
X190478848Y-40825042D01*
X190618524Y-40767818D01*
X190621230Y-40766878D01*
X190699505Y-40741610D01*
X190757301Y-40729752D01*
X190810655Y-40729514D01*
X190875606Y-40739104D01*
G37*
%TD*%
M02*
