%TF.GenerationSoftware,KiCad,Pcbnew,9.0.3*%
%TF.CreationDate,2025-08-21T16:00:50-04:00*%
%TF.ProjectId,hermes,6865726d-6573-42e6-9b69-6361645f7063,rev?*%
%TF.SameCoordinates,Original*%
%TF.FileFunction,Copper,L1,Top*%
%TF.FilePolarity,Positive*%
%FSLAX46Y46*%
G04 Gerber Fmt 4.6, Leading zero omitted, Abs format (unit mm)*
G04 Created by KiCad (PCBNEW 9.0.3) date 2025-08-21 16:00:50*
%MOMM*%
%LPD*%
G01*
G04 APERTURE LIST*
G04 Aperture macros list*
%AMRoundRect*
0 Rectangle with rounded corners*
0 $1 Rounding radius*
0 $2 $3 $4 $5 $6 $7 $8 $9 X,Y pos of 4 corners*
0 Add a 4 corners polygon primitive as box body*
4,1,4,$2,$3,$4,$5,$6,$7,$8,$9,$2,$3,0*
0 Add four circle primitives for the rounded corners*
1,1,$1+$1,$2,$3*
1,1,$1+$1,$4,$5*
1,1,$1+$1,$6,$7*
1,1,$1+$1,$8,$9*
0 Add four rect primitives between the rounded corners*
20,1,$1+$1,$2,$3,$4,$5,0*
20,1,$1+$1,$4,$5,$6,$7,0*
20,1,$1+$1,$6,$7,$8,$9,0*
20,1,$1+$1,$8,$9,$2,$3,0*%
G04 Aperture macros list end*
%TA.AperFunction,SMDPad,CuDef*%
%ADD10RoundRect,0.250000X0.450000X-0.262500X0.450000X0.262500X-0.450000X0.262500X-0.450000X-0.262500X0*%
%TD*%
%TA.AperFunction,SMDPad,CuDef*%
%ADD11RoundRect,0.152400X-1.063600X-0.609600X1.063600X-0.609600X1.063600X0.609600X-1.063600X0.609600X0*%
%TD*%
%TA.AperFunction,ComponentPad*%
%ADD12C,1.524000*%
%TD*%
%TA.AperFunction,SMDPad,CuDef*%
%ADD13RoundRect,0.152400X1.063600X0.609600X-1.063600X0.609600X-1.063600X-0.609600X1.063600X-0.609600X0*%
%TD*%
%TA.AperFunction,SMDPad,CuDef*%
%ADD14RoundRect,0.250000X-0.250000X-0.475000X0.250000X-0.475000X0.250000X0.475000X-0.250000X0.475000X0*%
%TD*%
%TA.AperFunction,SMDPad,CuDef*%
%ADD15RoundRect,0.250000X-0.450000X0.262500X-0.450000X-0.262500X0.450000X-0.262500X0.450000X0.262500X0*%
%TD*%
%TA.AperFunction,SMDPad,CuDef*%
%ADD16RoundRect,0.062500X0.062500X-0.127500X0.062500X0.127500X-0.062500X0.127500X-0.062500X-0.127500X0*%
%TD*%
%TA.AperFunction,SMDPad,CuDef*%
%ADD17RoundRect,0.125000X0.125000X-0.125000X0.125000X0.125000X-0.125000X0.125000X-0.125000X-0.125000X0*%
%TD*%
%TA.AperFunction,SMDPad,CuDef*%
%ADD18RoundRect,0.250000X0.262500X0.450000X-0.262500X0.450000X-0.262500X-0.450000X0.262500X-0.450000X0*%
%TD*%
%TA.AperFunction,ComponentPad*%
%ADD19O,1.600000X2.000000*%
%TD*%
%TA.AperFunction,SMDPad,CuDef*%
%ADD20RoundRect,0.087500X-0.287500X-0.087500X0.287500X-0.087500X0.287500X0.087500X-0.287500X0.087500X0*%
%TD*%
%TA.AperFunction,ViaPad*%
%ADD21C,0.600000*%
%TD*%
%TA.AperFunction,Conductor*%
%ADD22C,0.200000*%
%TD*%
G04 APERTURE END LIST*
D10*
%TO.P,R1,1*%
%TO.N,+3V3*%
X155695000Y-103353700D03*
%TO.P,R1,2*%
%TO.N,+1V8*%
X155695000Y-101528700D03*
%TD*%
D11*
%TO.P,U1,1,GPIO26/ADC0/A0*%
%TO.N,unconnected-(U1-GPIO26{slash}ADC0{slash}A0-Pad1)*%
X155000000Y-129120000D03*
D12*
%TO.N,unconnected-(U1-GPIO26{slash}ADC0{slash}A0-Pad1)_1*%
X154165000Y-129120000D03*
D11*
%TO.P,U1,2,GPIO27/ADC1/A1*%
%TO.N,unconnected-(U1-GPIO27{slash}ADC1{slash}A1-Pad2)_1*%
X155000000Y-126580000D03*
D12*
%TO.N,unconnected-(U1-GPIO27{slash}ADC1{slash}A1-Pad2)*%
X154165000Y-126580000D03*
D11*
%TO.P,U1,3,GPIO28/ADC2/A2*%
%TO.N,unconnected-(U1-GPIO28{slash}ADC2{slash}A2-Pad3)_1*%
X155000000Y-124040000D03*
D12*
%TO.N,unconnected-(U1-GPIO28{slash}ADC2{slash}A2-Pad3)*%
X154165000Y-124040000D03*
D11*
%TO.P,U1,4,GPIO29/ADC3/A3*%
%TO.N,unconnected-(U1-GPIO29{slash}ADC3{slash}A3-Pad4)*%
X155000000Y-121500000D03*
D12*
%TO.N,unconnected-(U1-GPIO29{slash}ADC3{slash}A3-Pad4)_1*%
X154165000Y-121500000D03*
D11*
%TO.P,U1,5,GPIO6/SDA*%
%TO.N,SDA*%
X155000000Y-118960000D03*
D12*
X154165000Y-118960000D03*
D11*
%TO.P,U1,6,GPIO7/SCL*%
%TO.N,SCL*%
X155000000Y-116420000D03*
D12*
X154165000Y-116420000D03*
D11*
%TO.P,U1,7,GPIO0/TX*%
%TO.N,unconnected-(U1-GPIO0{slash}TX-Pad7)_1*%
X155000000Y-113880000D03*
D12*
%TO.N,unconnected-(U1-GPIO0{slash}TX-Pad7)*%
X154165000Y-113880000D03*
%TO.P,U1,8,GPIO1/RX*%
%TO.N,unconnected-(U1-GPIO1{slash}RX-Pad8)_1*%
X138925000Y-113880000D03*
D13*
%TO.N,unconnected-(U1-GPIO1{slash}RX-Pad8)*%
X138090000Y-113880000D03*
D12*
%TO.P,U1,9,GPIO2/SCK*%
%TO.N,unconnected-(U1-GPIO2{slash}SCK-Pad9)_1*%
X138925000Y-116420000D03*
D13*
%TO.N,unconnected-(U1-GPIO2{slash}SCK-Pad9)*%
X138090000Y-116420000D03*
D12*
%TO.P,U1,10,GPIO4/MISO*%
%TO.N,unconnected-(U1-GPIO4{slash}MISO-Pad10)*%
X138925000Y-118960000D03*
D13*
%TO.N,unconnected-(U1-GPIO4{slash}MISO-Pad10)_1*%
X138090000Y-118960000D03*
D12*
%TO.P,U1,11,GPIO3/MOSI*%
%TO.N,unconnected-(U1-GPIO3{slash}MOSI-Pad11)_1*%
X138925000Y-121500000D03*
D13*
%TO.N,unconnected-(U1-GPIO3{slash}MOSI-Pad11)*%
X138090000Y-121500000D03*
D12*
%TO.P,U1,12,3V3*%
%TO.N,+3V3*%
X138925000Y-124040000D03*
D13*
X138090000Y-124040000D03*
D12*
%TO.P,U1,13,GND*%
%TO.N,GND*%
X138925000Y-126580000D03*
D13*
X138090000Y-126580000D03*
D12*
%TO.P,U1,14,VBUS*%
%TO.N,unconnected-(U1-VBUS-Pad14)_1*%
X138925000Y-129120000D03*
D13*
%TO.N,unconnected-(U1-VBUS-Pad14)*%
X138090000Y-129120000D03*
%TD*%
D14*
%TO.P,C4,1*%
%TO.N,+3V3*%
X137495000Y-107441200D03*
%TO.P,C4,2*%
%TO.N,GND*%
X139395000Y-107441200D03*
%TD*%
D15*
%TO.P,R8,1*%
%TO.N,+3V3*%
X139395000Y-96278700D03*
%TO.P,R8,2*%
%TO.N,TOF_INT*%
X139395000Y-98103700D03*
%TD*%
D16*
%TO.P,U3,1,AVDDVCSEL*%
%TO.N,+3V3*%
X137670000Y-103381200D03*
D17*
X137545000Y-103241200D03*
%TO.P,U3,2,AVSSVCSEL*%
%TO.N,GND*%
X137545000Y-102441200D03*
%TO.P,U3,3,GND*%
X137545000Y-101641200D03*
%TO.P,U3,4,GND*%
X137545000Y-100841200D03*
%TO.P,U3,5,XSHUT*%
%TO.N,XSHUT*%
X137545000Y-100041200D03*
%TO.P,U3,6,GND*%
%TO.N,GND*%
X138345000Y-100041200D03*
%TO.P,U3,7,GPIO1*%
%TO.N,TOF_INT*%
X139145000Y-100041200D03*
%TO.P,U3,8,DNC*%
%TO.N,unconnected-(U3-DNC-Pad8)*%
X139145000Y-100841200D03*
%TO.P,U3,9,SDA*%
%TO.N,SDA*%
X139145000Y-101641200D03*
%TO.P,U3,10,SCL*%
%TO.N,SCL*%
X139145000Y-102441200D03*
%TO.P,U3,11,AVDD*%
%TO.N,+3V3*%
X139145000Y-103241200D03*
%TO.P,U3,12,GND*%
%TO.N,GND*%
X138345000Y-103241200D03*
%TD*%
D14*
%TO.P,C6,1*%
%TO.N,+1V8*%
X149495000Y-99691200D03*
%TO.P,C6,2*%
%TO.N,GND*%
X151395000Y-99691200D03*
%TD*%
D18*
%TO.P,R3,1*%
%TO.N,+3V3*%
X142807500Y-100941200D03*
%TO.P,R3,2*%
%TO.N,SDA*%
X140982500Y-100941200D03*
%TD*%
D14*
%TO.P,C2,1*%
%TO.N,+3V3*%
X149495000Y-103691200D03*
%TO.P,C2,2*%
%TO.N,GND*%
X151395000Y-103691200D03*
%TD*%
D19*
%TO.P,J1,1,GND*%
%TO.N,GND*%
X150465000Y-92350000D03*
%TO.P,J1,2,VCC*%
%TO.N,+3V3*%
X147925000Y-92350000D03*
%TO.P,J1,3,SCL*%
%TO.N,SCL*%
X145385000Y-92350000D03*
%TO.P,J1,4,SDA*%
%TO.N,SDA*%
X142845000Y-92350000D03*
%TD*%
D14*
%TO.P,C5,1*%
%TO.N,+1V8*%
X149495000Y-97691200D03*
%TO.P,C5,2*%
%TO.N,GND*%
X151395000Y-97691200D03*
%TD*%
D20*
%TO.P,U2,1,NC*%
%TO.N,unconnected-(U2-NC-Pad1)*%
X144745000Y-99141200D03*
%TO.P,U2,2,SCL*%
%TO.N,SCL*%
X144745000Y-99941200D03*
%TO.P,U2,3,SDA*%
%TO.N,SDA*%
X144745000Y-100741200D03*
%TO.P,U2,4,PGND*%
%TO.N,GND*%
X144745000Y-101541200D03*
%TO.P,U2,5,NC*%
%TO.N,unconnected-(U2-NC-Pad5)*%
X144745000Y-102341200D03*
%TO.P,U2,6,NC*%
%TO.N,unconnected-(U2-NC-Pad6)*%
X144745000Y-103141200D03*
%TO.P,U2,7,NC*%
%TO.N,unconnected-(U2-NC-Pad7)*%
X144745000Y-103941200D03*
%TO.P,U2,8,NC*%
%TO.N,unconnected-(U2-NC-Pad8)*%
X147145000Y-103941200D03*
%TO.P,U2,9,VLED+*%
%TO.N,+3V3*%
X147145000Y-103141200D03*
%TO.P,U2,10,VLED+*%
X147145000Y-102341200D03*
%TO.P,U2,11,VDD*%
%TO.N,+1V8*%
X147145000Y-101541200D03*
%TO.P,U2,12,GND*%
%TO.N,GND*%
X147145000Y-100741200D03*
%TO.P,U2,13,~{INT}*%
%TO.N,unconnected-(U2-~{INT}-Pad13)*%
X147145000Y-99941200D03*
%TO.P,U2,14,NC*%
%TO.N,unconnected-(U2-NC-Pad14)*%
X147145000Y-99141200D03*
%TD*%
D18*
%TO.P,R4,1*%
%TO.N,+3V3*%
X142807500Y-102941200D03*
%TO.P,R4,2*%
%TO.N,SCL*%
X140982500Y-102941200D03*
%TD*%
D14*
%TO.P,C1,1*%
%TO.N,+3V3*%
X149495000Y-101691200D03*
%TO.P,C1,2*%
%TO.N,GND*%
X151395000Y-101691200D03*
%TD*%
%TO.P,C3,1*%
%TO.N,+3V3*%
X137495000Y-105441200D03*
%TO.P,C3,2*%
%TO.N,GND*%
X139395000Y-105441200D03*
%TD*%
D10*
%TO.P,R2,1*%
%TO.N,+1V8*%
X155695000Y-99853700D03*
%TO.P,R2,2*%
%TO.N,GND*%
X155695000Y-98028700D03*
%TD*%
D15*
%TO.P,R7,1*%
%TO.N,+3V3*%
X137395000Y-96278700D03*
%TO.P,R7,2*%
%TO.N,XSHUT*%
X137395000Y-98103700D03*
%TD*%
D21*
%TO.N,GND*%
X138345000Y-102417100D03*
X146107000Y-100978800D03*
X151695000Y-105000000D03*
X140130000Y-103985200D03*
%TO.N,SCL*%
X142895000Y-99191200D03*
X141895000Y-101941200D03*
%TD*%
D22*
%TO.N,GND*%
X138925000Y-126580000D02*
X138090000Y-126580000D01*
X146345000Y-100741200D02*
X147145000Y-100741200D01*
X138345000Y-100041200D02*
X138345000Y-102417100D01*
X151395000Y-104200000D02*
X151695000Y-104500000D01*
X138345000Y-103241200D02*
X138345000Y-102417100D01*
X145545000Y-101541200D02*
X146107000Y-100978800D01*
X151395000Y-97691200D02*
X151395000Y-103691200D01*
X137601000Y-101641200D02*
X137545000Y-101641200D01*
X138320900Y-102441200D02*
X138345000Y-102417100D01*
X155695000Y-98028700D02*
X151732000Y-98028700D01*
X151395000Y-103691200D02*
X151395000Y-104200000D01*
X137545000Y-101641200D02*
X137545000Y-100841200D01*
X137545000Y-100841200D02*
X137745000Y-100841200D01*
X151695000Y-104500000D02*
X151695000Y-105000000D01*
X151732000Y-98028700D02*
X151395000Y-97691200D01*
X138345000Y-102417100D02*
X138345000Y-102385300D01*
X139395000Y-104720000D02*
X139395000Y-105441200D01*
X137545000Y-102441200D02*
X138320900Y-102441200D01*
X144745000Y-101541200D02*
X145545000Y-101541200D01*
X140130000Y-103985200D02*
X139395000Y-104720000D01*
X139395000Y-105441200D02*
X139395000Y-107441200D01*
X138345000Y-102385300D02*
X137601000Y-101641200D01*
X146107000Y-100978800D02*
X146345000Y-100741200D01*
%TO.N,+3V3*%
X142807000Y-102984000D02*
X142808000Y-102983500D01*
X149495000Y-104791200D02*
X151204000Y-106500000D01*
X137545000Y-103256200D02*
X137545000Y-103241200D01*
X137545000Y-104316200D02*
X137545000Y-105391200D01*
X139145000Y-103241200D02*
X139145000Y-103791200D01*
X142807000Y-101614300D02*
X142808000Y-101613800D01*
X146770000Y-103141200D02*
X147145000Y-103141200D01*
X138090000Y-124040000D02*
X138925000Y-124040000D01*
X137545000Y-103241200D02*
X137545000Y-104316200D01*
X139950000Y-108481700D02*
X138997000Y-108481700D01*
X142808000Y-101613800D02*
X142808000Y-100941200D01*
X154195000Y-106500000D02*
X155695000Y-105000000D01*
X145804000Y-91002200D02*
X146823000Y-92021700D01*
X140022000Y-122942900D02*
X138925000Y-124040000D01*
X139178000Y-95257400D02*
X139395000Y-95474400D01*
X139395000Y-96278700D02*
X139395000Y-96278800D01*
X142808000Y-102983500D02*
X142808000Y-102941200D01*
X147145000Y-103141200D02*
X148945000Y-103141200D01*
X155695000Y-105000000D02*
X155695000Y-103353700D01*
X142807000Y-100941200D02*
X142807000Y-101277700D01*
X139950000Y-109871300D02*
X139950000Y-108481700D01*
X149495000Y-103691200D02*
X149495000Y-104791200D01*
X138997000Y-108481700D02*
X138536000Y-108481700D01*
X142807500Y-102941200D02*
X142808000Y-102941200D01*
X136384000Y-97290000D02*
X137395000Y-96278700D01*
X148945000Y-103141200D02*
X149495000Y-103691200D01*
X147925000Y-92350000D02*
X146823000Y-92350000D01*
X140022000Y-109943300D02*
X140022000Y-115712300D01*
X147145000Y-102341200D02*
X148845000Y-102341200D01*
X140022000Y-115712300D02*
X140022000Y-122942900D01*
X137545000Y-105391200D02*
X137495000Y-105441200D01*
X142807000Y-101277700D02*
X142807000Y-101614300D01*
X140022000Y-109943300D02*
X139950000Y-109871300D01*
X142412000Y-91002200D02*
X145804000Y-91002200D01*
X140022000Y-108481700D02*
X140022000Y-109943300D01*
X137395000Y-96278700D02*
X137395000Y-96278800D01*
X137395000Y-96278800D02*
X138153000Y-96278800D01*
X137545000Y-104316200D02*
X136384000Y-103154900D01*
X143226000Y-104772500D02*
X143226000Y-105205900D01*
X143645000Y-105191200D02*
X144720000Y-105191200D01*
X144720000Y-105191200D02*
X146770000Y-103141200D01*
X148845000Y-102341200D02*
X149495000Y-101691200D01*
X151204000Y-106500000D02*
X154195000Y-106500000D01*
X138153000Y-96278800D02*
X139395000Y-96278800D01*
X142807000Y-101277700D02*
X142807500Y-101277200D01*
X139178000Y-94236100D02*
X142412000Y-91002200D01*
X139395000Y-95474400D02*
X139395000Y-96278700D01*
X139178000Y-95257400D02*
X139178000Y-94236100D01*
X142807000Y-102984000D02*
X142807000Y-104353800D01*
X142807000Y-101614300D02*
X142807000Y-102984000D01*
X139178000Y-96278800D02*
X139178000Y-95257400D01*
X142807000Y-104353800D02*
X143226000Y-104772500D01*
X136384000Y-103154900D02*
X136384000Y-97290000D01*
X137670000Y-103381200D02*
X137545000Y-103256200D01*
X137495000Y-107441200D02*
X137495000Y-105441200D01*
X138536000Y-108481700D02*
X137495000Y-107441200D01*
X149495000Y-101691200D02*
X149495000Y-103691200D01*
X146823000Y-92021700D02*
X146823000Y-92350000D01*
X142807500Y-101277200D02*
X142807500Y-100941200D01*
X143226000Y-105205900D02*
X139950000Y-108481700D01*
X143226000Y-104772500D02*
X143645000Y-105191200D01*
X139145000Y-103791200D02*
X137495000Y-105441200D01*
%TO.N,+1V8*%
X149495000Y-97691200D02*
X149495000Y-99691200D01*
X147145000Y-101541200D02*
X146974000Y-101541200D01*
X147645000Y-101541200D02*
X147145000Y-101541200D01*
X149495000Y-99691200D02*
X147645000Y-101541200D01*
X157220000Y-97500000D02*
X157220000Y-99000000D01*
X157220000Y-99000000D02*
X156366000Y-99853700D01*
X151186000Y-96000000D02*
X155720000Y-96000000D01*
X155720000Y-96000000D02*
X157220000Y-97500000D01*
X156366000Y-99853700D02*
X155695000Y-99853700D01*
X155695000Y-101528700D02*
X155695000Y-99853700D01*
X149495000Y-97691200D02*
X151186000Y-96000000D01*
%TO.N,SDA*%
X144320000Y-100691000D02*
X144370000Y-100741200D01*
X140982000Y-100941200D02*
X140983000Y-100941200D01*
X140983000Y-100941200D02*
X140983000Y-100941400D01*
X140283000Y-101641200D02*
X140983000Y-100941400D01*
X140983000Y-100941200D02*
X141983000Y-99940200D01*
X142845000Y-93651700D02*
X141983000Y-94513700D01*
X139145000Y-101641200D02*
X140283000Y-101641200D01*
X142845000Y-92350000D02*
X142845000Y-93651700D01*
X155000000Y-118960000D02*
X154165000Y-118960000D01*
X143569000Y-99940200D02*
X144320000Y-100691000D01*
X144370000Y-100741200D02*
X144745000Y-100741200D01*
X140983000Y-100941400D02*
X140983000Y-100941200D01*
X141983000Y-99940200D02*
X143569000Y-99940200D01*
X141983000Y-94513700D02*
X141983000Y-99940200D01*
%TO.N,SCL*%
X139145000Y-102441200D02*
X140483000Y-102441200D01*
X140983000Y-102853800D02*
X141895000Y-101941200D01*
X143620000Y-99191200D02*
X144370000Y-99941200D01*
X140483000Y-102441200D02*
X140983000Y-102941200D01*
X142895000Y-99191200D02*
X143620000Y-99191200D01*
X145385000Y-92350000D02*
X145385000Y-93835000D01*
X140983000Y-102941200D02*
X140983000Y-102853800D01*
X155000000Y-116420000D02*
X154165000Y-116420000D01*
X144370000Y-99941200D02*
X144745000Y-99941200D01*
X142895000Y-96325000D02*
X142895000Y-99191200D01*
X140982000Y-102941200D02*
X140983000Y-102941200D01*
X145385000Y-93835000D02*
X142895000Y-96325000D01*
%TO.N,XSHUT*%
X137545000Y-100041200D02*
X137545000Y-98253800D01*
X137395000Y-98103700D02*
X137395000Y-98103800D01*
X137545000Y-98253800D02*
X137395000Y-98103800D01*
%TO.N,TOF_INT*%
X139145000Y-98353800D02*
X139395000Y-98103800D01*
X139395000Y-98103800D02*
X139395000Y-98103700D01*
X139145000Y-100041200D02*
X139145000Y-98353800D01*
%TD*%
M02*
