%TF.GenerationSoftware,KiCad,Pcbnew,9.0.3*%
%TF.CreationDate,2025-08-21T16:00:50-04:00*%
%TF.ProjectId,hermes,6865726d-6573-42e6-9b69-6361645f7063,rev?*%
%TF.SameCoordinates,Original*%
%TF.FileFunction,Soldermask,Top*%
%TF.FilePolarity,Negative*%
%FSLAX46Y46*%
G04 Gerber Fmt 4.6, Leading zero omitted, Abs format (unit mm)*
G04 Created by KiCad (PCBNEW 9.0.3) date 2025-08-21 16:00:50*
%MOMM*%
%LPD*%
G01*
G04 APERTURE LIST*
G04 Aperture macros list*
%AMRoundRect*
0 Rectangle with rounded corners*
0 $1 Rounding radius*
0 $2 $3 $4 $5 $6 $7 $8 $9 X,Y pos of 4 corners*
0 Add a 4 corners polygon primitive as box body*
4,1,4,$2,$3,$4,$5,$6,$7,$8,$9,$2,$3,0*
0 Add four circle primitives for the rounded corners*
1,1,$1+$1,$2,$3*
1,1,$1+$1,$4,$5*
1,1,$1+$1,$6,$7*
1,1,$1+$1,$8,$9*
0 Add four rect primitives between the rounded corners*
20,1,$1+$1,$2,$3,$4,$5,0*
20,1,$1+$1,$4,$5,$6,$7,0*
20,1,$1+$1,$6,$7,$8,$9,0*
20,1,$1+$1,$8,$9,$2,$3,0*%
G04 Aperture macros list end*
%ADD10RoundRect,0.250000X0.450000X-0.262500X0.450000X0.262500X-0.450000X0.262500X-0.450000X-0.262500X0*%
%ADD11RoundRect,0.152400X-1.063600X-0.609600X1.063600X-0.609600X1.063600X0.609600X-1.063600X0.609600X0*%
%ADD12C,1.524000*%
%ADD13RoundRect,0.152400X1.063600X0.609600X-1.063600X0.609600X-1.063600X-0.609600X1.063600X-0.609600X0*%
%ADD14RoundRect,0.250000X-0.250000X-0.475000X0.250000X-0.475000X0.250000X0.475000X-0.250000X0.475000X0*%
%ADD15RoundRect,0.250000X-0.450000X0.262500X-0.450000X-0.262500X0.450000X-0.262500X0.450000X0.262500X0*%
%ADD16RoundRect,0.062500X0.062500X-0.127500X0.062500X0.127500X-0.062500X0.127500X-0.062500X-0.127500X0*%
%ADD17RoundRect,0.125000X0.125000X-0.125000X0.125000X0.125000X-0.125000X0.125000X-0.125000X-0.125000X0*%
%ADD18RoundRect,0.250000X0.262500X0.450000X-0.262500X0.450000X-0.262500X-0.450000X0.262500X-0.450000X0*%
%ADD19O,1.600000X2.000000*%
%ADD20RoundRect,0.087500X-0.287500X-0.087500X0.287500X-0.087500X0.287500X0.087500X-0.287500X0.087500X0*%
G04 APERTURE END LIST*
D10*
%TO.C,R1*%
X155695000Y-103353700D03*
X155695000Y-101528700D03*
%TD*%
D11*
%TO.C,U1*%
X155000000Y-129120000D03*
D12*
X154165000Y-129120000D03*
D11*
X155000000Y-126580000D03*
D12*
X154165000Y-126580000D03*
D11*
X155000000Y-124040000D03*
D12*
X154165000Y-124040000D03*
D11*
X155000000Y-121500000D03*
D12*
X154165000Y-121500000D03*
D11*
X155000000Y-118960000D03*
D12*
X154165000Y-118960000D03*
D11*
X155000000Y-116420000D03*
D12*
X154165000Y-116420000D03*
D11*
X155000000Y-113880000D03*
D12*
X154165000Y-113880000D03*
X138925000Y-113880000D03*
D13*
X138090000Y-113880000D03*
D12*
X138925000Y-116420000D03*
D13*
X138090000Y-116420000D03*
D12*
X138925000Y-118960000D03*
D13*
X138090000Y-118960000D03*
D12*
X138925000Y-121500000D03*
D13*
X138090000Y-121500000D03*
D12*
X138925000Y-124040000D03*
D13*
X138090000Y-124040000D03*
D12*
X138925000Y-126580000D03*
D13*
X138090000Y-126580000D03*
D12*
X138925000Y-129120000D03*
D13*
X138090000Y-129120000D03*
%TD*%
D14*
%TO.C,C4*%
X137495000Y-107441200D03*
X139395000Y-107441200D03*
%TD*%
D15*
%TO.C,R8*%
X139395000Y-96278700D03*
X139395000Y-98103700D03*
%TD*%
D16*
%TO.C,U3*%
X137670000Y-103381200D03*
D17*
X137545000Y-103241200D03*
X137545000Y-102441200D03*
X137545000Y-101641200D03*
X137545000Y-100841200D03*
X137545000Y-100041200D03*
X138345000Y-100041200D03*
X139145000Y-100041200D03*
X139145000Y-100841200D03*
X139145000Y-101641200D03*
X139145000Y-102441200D03*
X139145000Y-103241200D03*
X138345000Y-103241200D03*
%TD*%
D14*
%TO.C,C6*%
X149495000Y-99691200D03*
X151395000Y-99691200D03*
%TD*%
D18*
%TO.C,R3*%
X142807500Y-100941200D03*
X140982500Y-100941200D03*
%TD*%
D14*
%TO.C,C2*%
X149495000Y-103691200D03*
X151395000Y-103691200D03*
%TD*%
D19*
%TO.C,J1*%
X150465000Y-92350000D03*
X147925000Y-92350000D03*
X145385000Y-92350000D03*
X142845000Y-92350000D03*
%TD*%
D14*
%TO.C,C5*%
X149495000Y-97691200D03*
X151395000Y-97691200D03*
%TD*%
D20*
%TO.C,U2*%
X144745000Y-99141200D03*
X144745000Y-99941200D03*
X144745000Y-100741200D03*
X144745000Y-101541200D03*
X144745000Y-102341200D03*
X144745000Y-103141200D03*
X144745000Y-103941200D03*
X147145000Y-103941200D03*
X147145000Y-103141200D03*
X147145000Y-102341200D03*
X147145000Y-101541200D03*
X147145000Y-100741200D03*
X147145000Y-99941200D03*
X147145000Y-99141200D03*
%TD*%
D18*
%TO.C,R4*%
X142807500Y-102941200D03*
X140982500Y-102941200D03*
%TD*%
D14*
%TO.C,C1*%
X149495000Y-101691200D03*
X151395000Y-101691200D03*
%TD*%
%TO.C,C3*%
X137495000Y-105441200D03*
X139395000Y-105441200D03*
%TD*%
D10*
%TO.C,R2*%
X155695000Y-99853700D03*
X155695000Y-98028700D03*
%TD*%
D15*
%TO.C,R7*%
X137395000Y-96278700D03*
X137395000Y-98103700D03*
%TD*%
M02*
