%TF.GenerationSoftware,KiCad,Pcbnew,9.0.3*%
%TF.CreationDate,2025-08-02T21:47:09-04:00*%
%TF.ProjectId,hermes,6865726d-6573-42e6-9b69-6361645f7063,rev?*%
%TF.SameCoordinates,Original*%
%TF.FileFunction,Soldermask,Top*%
%TF.FilePolarity,Negative*%
%FSLAX46Y46*%
G04 Gerber Fmt 4.6, Leading zero omitted, Abs format (unit mm)*
G04 Created by KiCad (PCBNEW 9.0.3) date 2025-08-02 21:47:09*
%MOMM*%
%LPD*%
G01*
G04 APERTURE LIST*
G04 Aperture macros list*
%AMRoundRect*
0 Rectangle with rounded corners*
0 $1 Rounding radius*
0 $2 $3 $4 $5 $6 $7 $8 $9 X,Y pos of 4 corners*
0 Add a 4 corners polygon primitive as box body*
4,1,4,$2,$3,$4,$5,$6,$7,$8,$9,$2,$3,0*
0 Add four circle primitives for the rounded corners*
1,1,$1+$1,$2,$3*
1,1,$1+$1,$4,$5*
1,1,$1+$1,$6,$7*
1,1,$1+$1,$8,$9*
0 Add four rect primitives between the rounded corners*
20,1,$1+$1,$2,$3,$4,$5,0*
20,1,$1+$1,$4,$5,$6,$7,0*
20,1,$1+$1,$6,$7,$8,$9,0*
20,1,$1+$1,$8,$9,$2,$3,0*%
G04 Aperture macros list end*
%ADD10RoundRect,0.250000X-0.262500X-0.450000X0.262500X-0.450000X0.262500X0.450000X-0.262500X0.450000X0*%
%ADD11RoundRect,0.152400X1.063600X0.609600X-1.063600X0.609600X-1.063600X-0.609600X1.063600X-0.609600X0*%
%ADD12C,1.524000*%
%ADD13RoundRect,0.152400X-1.063600X-0.609600X1.063600X-0.609600X1.063600X0.609600X-1.063600X0.609600X0*%
%ADD14RoundRect,0.250000X-0.250000X-0.475000X0.250000X-0.475000X0.250000X0.475000X-0.250000X0.475000X0*%
%ADD15O,2.000000X1.600000*%
%ADD16RoundRect,0.087500X-0.287500X-0.087500X0.287500X-0.087500X0.287500X0.087500X-0.287500X0.087500X0*%
G04 APERTURE END LIST*
D10*
%TO.C,R5*%
X163675000Y-84450000D03*
X165500000Y-84450000D03*
%TD*%
%TO.C,R1*%
X163675000Y-78550000D03*
X165500000Y-78550000D03*
%TD*%
D11*
%TO.C,U1*%
X137736000Y-75594500D03*
D12*
X138571000Y-75594500D03*
D11*
X137736000Y-78134500D03*
D12*
X138571000Y-78134500D03*
D11*
X137736000Y-80674500D03*
D12*
X138571000Y-80674500D03*
D11*
X137736000Y-83214500D03*
D12*
X138571000Y-83214500D03*
D11*
X137736000Y-85754500D03*
D12*
X138571000Y-85754500D03*
D11*
X137736000Y-88294500D03*
D12*
X138571000Y-88294500D03*
D11*
X137736000Y-90834500D03*
D12*
X138571000Y-90834500D03*
X153811000Y-90834500D03*
D13*
X154646000Y-90834500D03*
D12*
X153811000Y-88294500D03*
D13*
X154646000Y-88294500D03*
D12*
X153811000Y-85754500D03*
D13*
X154646000Y-85754500D03*
D12*
X153811000Y-83214500D03*
D13*
X154646000Y-83214500D03*
D12*
X153811000Y-80674500D03*
D13*
X154646000Y-80674500D03*
D12*
X153811000Y-78134500D03*
D13*
X154646000Y-78134500D03*
D12*
X153811000Y-75594500D03*
D13*
X154646000Y-75594500D03*
%TD*%
D14*
%TO.C,C6*%
X173600000Y-87500000D03*
X175500000Y-87500000D03*
%TD*%
D10*
%TO.C,R6*%
X163675000Y-87400000D03*
X165500000Y-87400000D03*
%TD*%
D14*
%TO.C,C2*%
X173600000Y-81480000D03*
X175500000Y-81480000D03*
%TD*%
D15*
%TO.C,J1*%
X130950000Y-80080000D03*
X130950000Y-82620000D03*
X130950000Y-85160000D03*
X130950000Y-87700000D03*
%TD*%
D14*
%TO.C,C5*%
X173600000Y-84490000D03*
X175500000Y-84490000D03*
%TD*%
D16*
%TO.C,U2*%
X183100000Y-80700000D03*
X183100000Y-81500000D03*
X183100000Y-82300000D03*
X183100000Y-83100000D03*
X183100000Y-83900000D03*
X183100000Y-84700000D03*
X183100000Y-85500000D03*
X185500000Y-85500000D03*
X185500000Y-84700000D03*
X185500000Y-83900000D03*
X185500000Y-83100000D03*
X185500000Y-82300000D03*
X185500000Y-81500000D03*
X185500000Y-80700000D03*
%TD*%
D14*
%TO.C,C1*%
X173600000Y-78470000D03*
X175500000Y-78470000D03*
%TD*%
D10*
%TO.C,R2*%
X163675000Y-81500000D03*
X165500000Y-81500000D03*
%TD*%
M02*
